<?xml version="1.0" encoding="utf-8" standalone="no"?>
<!DOCTYPE svg PUBLIC "-//W3C//DTD SVG 1.1//EN"
  "http://www.w3.org/Graphics/SVG/1.1/DTD/svg11.dtd">
<svg xmlns:xlink="http://www.w3.org/1999/xlink" width="2880pt" height="1440pt" viewBox="0 0 2880 1440" xmlns="http://www.w3.org/2000/svg" version="1.1">
 <metadata>
  <rdf:RDF xmlns:dc="http://purl.org/dc/elements/1.1/" xmlns:cc="http://creativecommons.org/ns#" xmlns:rdf="http://www.w3.org/1999/02/22-rdf-syntax-ns#">
   <cc:Work>
    <dc:type rdf:resource="http://purl.org/dc/dcmitype/StillImage"/>
    <dc:date>2024-04-06T10:55:20.312143</dc:date>
    <dc:format>image/svg+xml</dc:format>
    <dc:creator>
     <cc:Agent>
      <dc:title>Matplotlib v3.6.2, https://matplotlib.org/</dc:title>
     </cc:Agent>
    </dc:creator>
   </cc:Work>
  </rdf:RDF>
 </metadata>
 <defs>
  <style type="text/css">*{stroke-linejoin: round; stroke-linecap: butt}</style>
 </defs>
 <g id="figure_1">
  <g id="patch_1">
   <path d="M 0 1440 
L 2880 1440 
L 2880 0 
L 0 0 
z
" style="fill: #ffffff"/>
  </g>
  <g id="axes_1">
   <g id="patch_2">
    <path d="M 137.54 1329.64 
L 2847.6 1329.64 
L 2847.6 32.4 
L 137.54 32.4 
z
" style="fill: #ffffff"/>
   </g>
   <g id="matplotlib.axis_1">
    <g id="xtick_1">
     <g id="line2d_1">
      <path d="M 181.250645 1329.64 
L 181.250645 32.4 
" clip-path="url(#p0f531b394a)" style="fill: none; stroke: #b0b0b0; stroke-width: 0.8; stroke-linecap: square"/>
     </g>
     <g id="line2d_2">
      <defs>
       <path id="m58c10be76e" d="M 0 0 
L 0 3.5 
" style="stroke: #000000; stroke-width: 0.8"/>
      </defs>
      <g>
       <use xlink:href="#m58c10be76e" x="181.250645" y="1329.64" style="stroke: #000000; stroke-width: 0.8"/>
      </g>
     </g>
     <g id="text_1">
      <!-- −30 -->
      <g transform="translate(157.792051 1357.47125) scale(0.3 -0.3)">
       <defs>
        <path id="TimesNewRomanPSMT-2212" d="M 3484 2000 
L 116 2000 
L 116 2256 
L 3484 2256 
L 3484 2000 
z
" transform="scale(0.015625)"/>
        <path id="TimesNewRomanPSMT-33" d="M 325 3431 
Q 506 3859 782 4092 
Q 1059 4325 1472 4325 
Q 1981 4325 2253 3994 
Q 2459 3747 2459 3466 
Q 2459 3003 1878 2509 
Q 2269 2356 2469 2072 
Q 2669 1788 2669 1403 
Q 2669 853 2319 450 
Q 1863 -75 997 -75 
Q 569 -75 414 31 
Q 259 138 259 259 
Q 259 350 332 419 
Q 406 488 509 488 
Q 588 488 669 463 
Q 722 447 909 348 
Q 1097 250 1169 231 
Q 1284 197 1416 197 
Q 1734 197 1970 444 
Q 2206 691 2206 1028 
Q 2206 1275 2097 1509 
Q 2016 1684 1919 1775 
Q 1784 1900 1550 2001 
Q 1316 2103 1072 2103 
L 972 2103 
L 972 2197 
Q 1219 2228 1467 2375 
Q 1716 2522 1828 2728 
Q 1941 2934 1941 3181 
Q 1941 3503 1739 3701 
Q 1538 3900 1238 3900 
Q 753 3900 428 3381 
L 325 3431 
z
" transform="scale(0.015625)"/>
        <path id="TimesNewRomanPSMT-30" d="M 231 2094 
Q 231 2819 450 3342 
Q 669 3866 1031 4122 
Q 1313 4325 1613 4325 
Q 2100 4325 2488 3828 
Q 2972 3213 2972 2159 
Q 2972 1422 2759 906 
Q 2547 391 2217 158 
Q 1888 -75 1581 -75 
Q 975 -75 572 641 
Q 231 1244 231 2094 
z
M 844 2016 
Q 844 1141 1059 588 
Q 1238 122 1591 122 
Q 1759 122 1940 273 
Q 2122 425 2216 781 
Q 2359 1319 2359 2297 
Q 2359 3022 2209 3506 
Q 2097 3866 1919 4016 
Q 1791 4119 1609 4119 
Q 1397 4119 1231 3928 
Q 1006 3669 925 3112 
Q 844 2556 844 2016 
z
" transform="scale(0.015625)"/>
       </defs>
       <use xlink:href="#TimesNewRomanPSMT-2212"/>
       <use xlink:href="#TimesNewRomanPSMT-33" x="56.396484"/>
       <use xlink:href="#TimesNewRomanPSMT-30" x="106.396484"/>
      </g>
     </g>
    </g>
    <g id="xtick_2">
     <g id="line2d_3">
      <path d="M 356.093226 1329.64 
L 356.093226 32.4 
" clip-path="url(#p0f531b394a)" style="fill: none; stroke: #b0b0b0; stroke-width: 0.8; stroke-linecap: square"/>
     </g>
     <g id="line2d_4">
      <g>
       <use xlink:href="#m58c10be76e" x="356.093226" y="1329.64" style="stroke: #000000; stroke-width: 0.8"/>
      </g>
     </g>
     <g id="text_2">
      <!-- −28 -->
      <g transform="translate(332.634632 1357.47125) scale(0.3 -0.3)">
       <defs>
        <path id="TimesNewRomanPSMT-32" d="M 2934 816 
L 2638 0 
L 138 0 
L 138 116 
Q 1241 1122 1691 1759 
Q 2141 2397 2141 2925 
Q 2141 3328 1894 3587 
Q 1647 3847 1303 3847 
Q 991 3847 742 3664 
Q 494 3481 375 3128 
L 259 3128 
Q 338 3706 661 4015 
Q 984 4325 1469 4325 
Q 1984 4325 2329 3994 
Q 2675 3663 2675 3213 
Q 2675 2891 2525 2569 
Q 2294 2063 1775 1497 
Q 997 647 803 472 
L 1909 472 
Q 2247 472 2383 497 
Q 2519 522 2628 598 
Q 2738 675 2819 816 
L 2934 816 
z
" transform="scale(0.015625)"/>
        <path id="TimesNewRomanPSMT-38" d="M 1228 2134 
Q 725 2547 579 2797 
Q 434 3047 434 3316 
Q 434 3728 753 4026 
Q 1072 4325 1600 4325 
Q 2113 4325 2425 4047 
Q 2738 3769 2738 3413 
Q 2738 3175 2569 2928 
Q 2400 2681 1866 2347 
Q 2416 1922 2594 1678 
Q 2831 1359 2831 1006 
Q 2831 559 2490 242 
Q 2150 -75 1597 -75 
Q 994 -75 656 303 
Q 388 606 388 966 
Q 388 1247 577 1523 
Q 766 1800 1228 2134 
z
M 1719 2469 
Q 2094 2806 2194 3001 
Q 2294 3197 2294 3444 
Q 2294 3772 2109 3958 
Q 1925 4144 1606 4144 
Q 1288 4144 1088 3959 
Q 888 3775 888 3528 
Q 888 3366 970 3203 
Q 1053 3041 1206 2894 
L 1719 2469 
z
M 1375 2016 
Q 1116 1797 991 1539 
Q 866 1281 866 981 
Q 866 578 1086 336 
Q 1306 94 1647 94 
Q 1984 94 2187 284 
Q 2391 475 2391 747 
Q 2391 972 2272 1150 
Q 2050 1481 1375 2016 
z
" transform="scale(0.015625)"/>
       </defs>
       <use xlink:href="#TimesNewRomanPSMT-2212"/>
       <use xlink:href="#TimesNewRomanPSMT-32" x="56.396484"/>
       <use xlink:href="#TimesNewRomanPSMT-38" x="106.396484"/>
      </g>
     </g>
    </g>
    <g id="xtick_3">
     <g id="line2d_5">
      <path d="M 530.935806 1329.64 
L 530.935806 32.4 
" clip-path="url(#p0f531b394a)" style="fill: none; stroke: #b0b0b0; stroke-width: 0.8; stroke-linecap: square"/>
     </g>
     <g id="line2d_6">
      <g>
       <use xlink:href="#m58c10be76e" x="530.935806" y="1329.64" style="stroke: #000000; stroke-width: 0.8"/>
      </g>
     </g>
     <g id="text_3">
      <!-- −26 -->
      <g transform="translate(507.477213 1357.47125) scale(0.3 -0.3)">
       <defs>
        <path id="TimesNewRomanPSMT-36" d="M 2869 4325 
L 2869 4209 
Q 2456 4169 2195 4045 
Q 1934 3922 1679 3669 
Q 1425 3416 1258 3105 
Q 1091 2794 978 2366 
Q 1428 2675 1881 2675 
Q 2316 2675 2634 2325 
Q 2953 1975 2953 1425 
Q 2953 894 2631 456 
Q 2244 -75 1606 -75 
Q 1172 -75 869 213 
Q 275 772 275 1663 
Q 275 2231 503 2743 
Q 731 3256 1154 3653 
Q 1578 4050 1965 4187 
Q 2353 4325 2688 4325 
L 2869 4325 
z
M 925 2138 
Q 869 1716 869 1456 
Q 869 1156 980 804 
Q 1091 453 1309 247 
Q 1469 100 1697 100 
Q 1969 100 2183 356 
Q 2397 613 2397 1088 
Q 2397 1622 2184 2012 
Q 1972 2403 1581 2403 
Q 1463 2403 1327 2353 
Q 1191 2303 925 2138 
z
" transform="scale(0.015625)"/>
       </defs>
       <use xlink:href="#TimesNewRomanPSMT-2212"/>
       <use xlink:href="#TimesNewRomanPSMT-32" x="56.396484"/>
       <use xlink:href="#TimesNewRomanPSMT-36" x="106.396484"/>
      </g>
     </g>
    </g>
    <g id="xtick_4">
     <g id="line2d_7">
      <path d="M 705.778387 1329.64 
L 705.778387 32.4 
" clip-path="url(#p0f531b394a)" style="fill: none; stroke: #b0b0b0; stroke-width: 0.8; stroke-linecap: square"/>
     </g>
     <g id="line2d_8">
      <g>
       <use xlink:href="#m58c10be76e" x="705.778387" y="1329.64" style="stroke: #000000; stroke-width: 0.8"/>
      </g>
     </g>
     <g id="text_4">
      <!-- −24 -->
      <g transform="translate(682.319793 1357.47125) scale(0.3 -0.3)">
       <defs>
        <path id="TimesNewRomanPSMT-34" d="M 2978 1563 
L 2978 1119 
L 2409 1119 
L 2409 0 
L 1894 0 
L 1894 1119 
L 100 1119 
L 100 1519 
L 2066 4325 
L 2409 4325 
L 2409 1563 
L 2978 1563 
z
M 1894 1563 
L 1894 3666 
L 406 1563 
L 1894 1563 
z
" transform="scale(0.015625)"/>
       </defs>
       <use xlink:href="#TimesNewRomanPSMT-2212"/>
       <use xlink:href="#TimesNewRomanPSMT-32" x="56.396484"/>
       <use xlink:href="#TimesNewRomanPSMT-34" x="106.396484"/>
      </g>
     </g>
    </g>
    <g id="xtick_5">
     <g id="line2d_9">
      <path d="M 880.620968 1329.64 
L 880.620968 32.4 
" clip-path="url(#p0f531b394a)" style="fill: none; stroke: #b0b0b0; stroke-width: 0.8; stroke-linecap: square"/>
     </g>
     <g id="line2d_10">
      <g>
       <use xlink:href="#m58c10be76e" x="880.620968" y="1329.64" style="stroke: #000000; stroke-width: 0.8"/>
      </g>
     </g>
     <g id="text_5">
      <!-- −22 -->
      <g transform="translate(857.162374 1357.47125) scale(0.3 -0.3)">
       <use xlink:href="#TimesNewRomanPSMT-2212"/>
       <use xlink:href="#TimesNewRomanPSMT-32" x="56.396484"/>
       <use xlink:href="#TimesNewRomanPSMT-32" x="106.396484"/>
      </g>
     </g>
    </g>
    <g id="xtick_6">
     <g id="line2d_11">
      <path d="M 1055.463548 1329.64 
L 1055.463548 32.4 
" clip-path="url(#p0f531b394a)" style="fill: none; stroke: #b0b0b0; stroke-width: 0.8; stroke-linecap: square"/>
     </g>
     <g id="line2d_12">
      <g>
       <use xlink:href="#m58c10be76e" x="1055.463548" y="1329.64" style="stroke: #000000; stroke-width: 0.8"/>
      </g>
     </g>
     <g id="text_6">
      <!-- −20 -->
      <g transform="translate(1032.004955 1357.47125) scale(0.3 -0.3)">
       <use xlink:href="#TimesNewRomanPSMT-2212"/>
       <use xlink:href="#TimesNewRomanPSMT-32" x="56.396484"/>
       <use xlink:href="#TimesNewRomanPSMT-30" x="106.396484"/>
      </g>
     </g>
    </g>
    <g id="xtick_7">
     <g id="line2d_13">
      <path d="M 1230.306129 1329.64 
L 1230.306129 32.4 
" clip-path="url(#p0f531b394a)" style="fill: none; stroke: #b0b0b0; stroke-width: 0.8; stroke-linecap: square"/>
     </g>
     <g id="line2d_14">
      <g>
       <use xlink:href="#m58c10be76e" x="1230.306129" y="1329.64" style="stroke: #000000; stroke-width: 0.8"/>
      </g>
     </g>
     <g id="text_7">
      <!-- −18 -->
      <g transform="translate(1206.847535 1357.47125) scale(0.3 -0.3)">
       <defs>
        <path id="TimesNewRomanPSMT-31" d="M 750 3822 
L 1781 4325 
L 1884 4325 
L 1884 747 
Q 1884 391 1914 303 
Q 1944 216 2037 169 
Q 2131 122 2419 116 
L 2419 0 
L 825 0 
L 825 116 
Q 1125 122 1212 167 
Q 1300 213 1334 289 
Q 1369 366 1369 747 
L 1369 3034 
Q 1369 3497 1338 3628 
Q 1316 3728 1258 3775 
Q 1200 3822 1119 3822 
Q 1003 3822 797 3725 
L 750 3822 
z
" transform="scale(0.015625)"/>
       </defs>
       <use xlink:href="#TimesNewRomanPSMT-2212"/>
       <use xlink:href="#TimesNewRomanPSMT-31" x="56.396484"/>
       <use xlink:href="#TimesNewRomanPSMT-38" x="106.396484"/>
      </g>
     </g>
    </g>
    <g id="xtick_8">
     <g id="line2d_15">
      <path d="M 1405.14871 1329.64 
L 1405.14871 32.4 
" clip-path="url(#p0f531b394a)" style="fill: none; stroke: #b0b0b0; stroke-width: 0.8; stroke-linecap: square"/>
     </g>
     <g id="line2d_16">
      <g>
       <use xlink:href="#m58c10be76e" x="1405.14871" y="1329.64" style="stroke: #000000; stroke-width: 0.8"/>
      </g>
     </g>
     <g id="text_8">
      <!-- −16 -->
      <g transform="translate(1381.690116 1357.47125) scale(0.3 -0.3)">
       <use xlink:href="#TimesNewRomanPSMT-2212"/>
       <use xlink:href="#TimesNewRomanPSMT-31" x="56.396484"/>
       <use xlink:href="#TimesNewRomanPSMT-36" x="106.396484"/>
      </g>
     </g>
    </g>
    <g id="xtick_9">
     <g id="line2d_17">
      <path d="M 1579.99129 1329.64 
L 1579.99129 32.4 
" clip-path="url(#p0f531b394a)" style="fill: none; stroke: #b0b0b0; stroke-width: 0.8; stroke-linecap: square"/>
     </g>
     <g id="line2d_18">
      <g>
       <use xlink:href="#m58c10be76e" x="1579.99129" y="1329.64" style="stroke: #000000; stroke-width: 0.8"/>
      </g>
     </g>
     <g id="text_9">
      <!-- −14 -->
      <g transform="translate(1556.532697 1357.47125) scale(0.3 -0.3)">
       <use xlink:href="#TimesNewRomanPSMT-2212"/>
       <use xlink:href="#TimesNewRomanPSMT-31" x="56.396484"/>
       <use xlink:href="#TimesNewRomanPSMT-34" x="106.396484"/>
      </g>
     </g>
    </g>
    <g id="xtick_10">
     <g id="line2d_19">
      <path d="M 1754.833871 1329.64 
L 1754.833871 32.4 
" clip-path="url(#p0f531b394a)" style="fill: none; stroke: #b0b0b0; stroke-width: 0.8; stroke-linecap: square"/>
     </g>
     <g id="line2d_20">
      <g>
       <use xlink:href="#m58c10be76e" x="1754.833871" y="1329.64" style="stroke: #000000; stroke-width: 0.8"/>
      </g>
     </g>
     <g id="text_10">
      <!-- −12 -->
      <g transform="translate(1731.375277 1357.47125) scale(0.3 -0.3)">
       <use xlink:href="#TimesNewRomanPSMT-2212"/>
       <use xlink:href="#TimesNewRomanPSMT-31" x="56.396484"/>
       <use xlink:href="#TimesNewRomanPSMT-32" x="106.396484"/>
      </g>
     </g>
    </g>
    <g id="xtick_11">
     <g id="line2d_21">
      <path d="M 1929.676452 1329.64 
L 1929.676452 32.4 
" clip-path="url(#p0f531b394a)" style="fill: none; stroke: #b0b0b0; stroke-width: 0.8; stroke-linecap: square"/>
     </g>
     <g id="line2d_22">
      <g>
       <use xlink:href="#m58c10be76e" x="1929.676452" y="1329.64" style="stroke: #000000; stroke-width: 0.8"/>
      </g>
     </g>
     <g id="text_11">
      <!-- −10 -->
      <g transform="translate(1906.217858 1357.47125) scale(0.3 -0.3)">
       <use xlink:href="#TimesNewRomanPSMT-2212"/>
       <use xlink:href="#TimesNewRomanPSMT-31" x="56.396484"/>
       <use xlink:href="#TimesNewRomanPSMT-30" x="106.396484"/>
      </g>
     </g>
    </g>
    <g id="xtick_12">
     <g id="line2d_23">
      <path d="M 2104.519032 1329.64 
L 2104.519032 32.4 
" clip-path="url(#p0f531b394a)" style="fill: none; stroke: #b0b0b0; stroke-width: 0.8; stroke-linecap: square"/>
     </g>
     <g id="line2d_24">
      <g>
       <use xlink:href="#m58c10be76e" x="2104.519032" y="1329.64" style="stroke: #000000; stroke-width: 0.8"/>
      </g>
     </g>
     <g id="text_12">
      <!-- −8 -->
      <g transform="translate(2088.560439 1357.47125) scale(0.3 -0.3)">
       <use xlink:href="#TimesNewRomanPSMT-2212"/>
       <use xlink:href="#TimesNewRomanPSMT-38" x="56.396484"/>
      </g>
     </g>
    </g>
    <g id="xtick_13">
     <g id="line2d_25">
      <path d="M 2279.361613 1329.64 
L 2279.361613 32.4 
" clip-path="url(#p0f531b394a)" style="fill: none; stroke: #b0b0b0; stroke-width: 0.8; stroke-linecap: square"/>
     </g>
     <g id="line2d_26">
      <g>
       <use xlink:href="#m58c10be76e" x="2279.361613" y="1329.64" style="stroke: #000000; stroke-width: 0.8"/>
      </g>
     </g>
     <g id="text_13">
      <!-- −6 -->
      <g transform="translate(2263.403019 1357.47125) scale(0.3 -0.3)">
       <use xlink:href="#TimesNewRomanPSMT-2212"/>
       <use xlink:href="#TimesNewRomanPSMT-36" x="56.396484"/>
      </g>
     </g>
    </g>
    <g id="xtick_14">
     <g id="line2d_27">
      <path d="M 2454.204194 1329.64 
L 2454.204194 32.4 
" clip-path="url(#p0f531b394a)" style="fill: none; stroke: #b0b0b0; stroke-width: 0.8; stroke-linecap: square"/>
     </g>
     <g id="line2d_28">
      <g>
       <use xlink:href="#m58c10be76e" x="2454.204194" y="1329.64" style="stroke: #000000; stroke-width: 0.8"/>
      </g>
     </g>
     <g id="text_14">
      <!-- −4 -->
      <g transform="translate(2438.2456 1357.47125) scale(0.3 -0.3)">
       <use xlink:href="#TimesNewRomanPSMT-2212"/>
       <use xlink:href="#TimesNewRomanPSMT-34" x="56.396484"/>
      </g>
     </g>
    </g>
    <g id="xtick_15">
     <g id="line2d_29">
      <path d="M 2629.046774 1329.64 
L 2629.046774 32.4 
" clip-path="url(#p0f531b394a)" style="fill: none; stroke: #b0b0b0; stroke-width: 0.8; stroke-linecap: square"/>
     </g>
     <g id="line2d_30">
      <g>
       <use xlink:href="#m58c10be76e" x="2629.046774" y="1329.64" style="stroke: #000000; stroke-width: 0.8"/>
      </g>
     </g>
     <g id="text_15">
      <!-- −2 -->
      <g transform="translate(2613.08818 1357.47125) scale(0.3 -0.3)">
       <use xlink:href="#TimesNewRomanPSMT-2212"/>
       <use xlink:href="#TimesNewRomanPSMT-32" x="56.396484"/>
      </g>
     </g>
    </g>
    <g id="xtick_16">
     <g id="line2d_31">
      <path d="M 2803.889355 1329.64 
L 2803.889355 32.4 
" clip-path="url(#p0f531b394a)" style="fill: none; stroke: #b0b0b0; stroke-width: 0.8; stroke-linecap: square"/>
     </g>
     <g id="line2d_32">
      <g>
       <use xlink:href="#m58c10be76e" x="2803.889355" y="1329.64" style="stroke: #000000; stroke-width: 0.8"/>
      </g>
     </g>
     <g id="text_16">
      <!-- 0 -->
      <g transform="translate(2796.389355 1357.47125) scale(0.3 -0.3)">
       <use xlink:href="#TimesNewRomanPSMT-30"/>
      </g>
     </g>
    </g>
    <g id="text_17">
     <!-- Different lag -->
     <g transform="translate(1382.005 1397.885437) scale(0.432 -0.432)">
      <defs>
       <path id="TimesNewRomanPSMT-44" d="M 109 0 
L 109 116 
L 269 116 
Q 538 116 650 288 
Q 719 391 719 750 
L 719 3488 
Q 719 3884 631 3984 
Q 509 4122 269 4122 
L 109 4122 
L 109 4238 
L 1834 4238 
Q 2784 4238 3279 4022 
Q 3775 3806 4076 3303 
Q 4378 2800 4378 2141 
Q 4378 1256 3841 663 
Q 3238 0 2003 0 
L 109 0 
z
M 1319 306 
Q 1716 219 1984 219 
Q 2709 219 3187 728 
Q 3666 1238 3666 2109 
Q 3666 2988 3187 3494 
Q 2709 4000 1959 4000 
Q 1678 4000 1319 3909 
L 1319 306 
z
" transform="scale(0.015625)"/>
       <path id="TimesNewRomanPSMT-69" d="M 928 4444 
Q 1059 4444 1151 4351 
Q 1244 4259 1244 4128 
Q 1244 3997 1151 3903 
Q 1059 3809 928 3809 
Q 797 3809 703 3903 
Q 609 3997 609 4128 
Q 609 4259 701 4351 
Q 794 4444 928 4444 
z
M 1188 2947 
L 1188 647 
Q 1188 378 1227 289 
Q 1266 200 1342 156 
Q 1419 113 1622 113 
L 1622 0 
L 231 0 
L 231 113 
Q 441 113 512 153 
Q 584 194 626 287 
Q 669 381 669 647 
L 669 1750 
Q 669 2216 641 2353 
Q 619 2453 572 2492 
Q 525 2531 444 2531 
Q 356 2531 231 2484 
L 188 2597 
L 1050 2947 
L 1188 2947 
z
" transform="scale(0.015625)"/>
       <path id="TimesNewRomanPSMT-66" d="M 1319 2638 
L 1319 756 
Q 1319 356 1406 250 
Q 1522 113 1716 113 
L 1975 113 
L 1975 0 
L 266 0 
L 266 113 
L 394 113 
Q 519 113 622 175 
Q 725 238 764 344 
Q 803 450 803 756 
L 803 2638 
L 247 2638 
L 247 2863 
L 803 2863 
L 803 3050 
Q 803 3478 940 3775 
Q 1078 4072 1361 4255 
Q 1644 4438 1997 4438 
Q 2325 4438 2600 4225 
Q 2781 4084 2781 3909 
Q 2781 3816 2700 3733 
Q 2619 3650 2525 3650 
Q 2453 3650 2373 3701 
Q 2294 3753 2178 3923 
Q 2063 4094 1966 4153 
Q 1869 4213 1750 4213 
Q 1606 4213 1506 4136 
Q 1406 4059 1362 3898 
Q 1319 3738 1319 3069 
L 1319 2863 
L 2056 2863 
L 2056 2638 
L 1319 2638 
z
" transform="scale(0.015625)"/>
       <path id="TimesNewRomanPSMT-65" d="M 681 1784 
Q 678 1147 991 784 
Q 1303 422 1725 422 
Q 2006 422 2214 576 
Q 2422 731 2563 1106 
L 2659 1044 
Q 2594 616 2278 264 
Q 1963 -88 1488 -88 
Q 972 -88 605 314 
Q 238 716 238 1394 
Q 238 2128 614 2539 
Q 991 2950 1559 2950 
Q 2041 2950 2350 2633 
Q 2659 2316 2659 1784 
L 681 1784 
z
M 681 1966 
L 2006 1966 
Q 1991 2241 1941 2353 
Q 1863 2528 1708 2628 
Q 1553 2728 1384 2728 
Q 1125 2728 920 2526 
Q 716 2325 681 1966 
z
" transform="scale(0.015625)"/>
       <path id="TimesNewRomanPSMT-72" d="M 1038 2947 
L 1038 2303 
Q 1397 2947 1775 2947 
Q 1947 2947 2059 2842 
Q 2172 2738 2172 2600 
Q 2172 2478 2090 2393 
Q 2009 2309 1897 2309 
Q 1788 2309 1652 2417 
Q 1516 2525 1450 2525 
Q 1394 2525 1328 2463 
Q 1188 2334 1038 2041 
L 1038 669 
Q 1038 431 1097 309 
Q 1138 225 1241 169 
Q 1344 113 1538 113 
L 1538 0 
L 72 0 
L 72 113 
Q 291 113 397 181 
Q 475 231 506 341 
Q 522 394 522 644 
L 522 1753 
Q 522 2253 501 2348 
Q 481 2444 426 2487 
Q 372 2531 291 2531 
Q 194 2531 72 2484 
L 41 2597 
L 906 2947 
L 1038 2947 
z
" transform="scale(0.015625)"/>
       <path id="TimesNewRomanPSMT-6e" d="M 1034 2341 
Q 1538 2947 1994 2947 
Q 2228 2947 2397 2830 
Q 2566 2713 2666 2444 
Q 2734 2256 2734 1869 
L 2734 647 
Q 2734 375 2778 278 
Q 2813 200 2889 156 
Q 2966 113 3172 113 
L 3172 0 
L 1756 0 
L 1756 113 
L 1816 113 
Q 2016 113 2095 173 
Q 2175 234 2206 353 
Q 2219 400 2219 647 
L 2219 1819 
Q 2219 2209 2117 2386 
Q 2016 2563 1775 2563 
Q 1403 2563 1034 2156 
L 1034 647 
Q 1034 356 1069 288 
Q 1113 197 1189 155 
Q 1266 113 1500 113 
L 1500 0 
L 84 0 
L 84 113 
L 147 113 
Q 366 113 442 223 
Q 519 334 519 647 
L 519 1709 
Q 519 2225 495 2337 
Q 472 2450 423 2490 
Q 375 2531 294 2531 
Q 206 2531 84 2484 
L 38 2597 
L 900 2947 
L 1034 2947 
L 1034 2341 
z
" transform="scale(0.015625)"/>
       <path id="TimesNewRomanPSMT-74" d="M 1031 3803 
L 1031 2863 
L 1700 2863 
L 1700 2644 
L 1031 2644 
L 1031 788 
Q 1031 509 1111 412 
Q 1191 316 1316 316 
Q 1419 316 1516 380 
Q 1613 444 1666 569 
L 1788 569 
Q 1678 263 1478 108 
Q 1278 -47 1066 -47 
Q 922 -47 784 33 
Q 647 113 581 261 
Q 516 409 516 719 
L 516 2644 
L 63 2644 
L 63 2747 
Q 234 2816 414 2980 
Q 594 3144 734 3369 
Q 806 3488 934 3803 
L 1031 3803 
z
" transform="scale(0.015625)"/>
       <path id="TimesNewRomanPSMT-20" transform="scale(0.015625)"/>
       <path id="TimesNewRomanPSMT-6c" d="M 1184 4444 
L 1184 647 
Q 1184 378 1223 290 
Q 1263 203 1344 158 
Q 1425 113 1647 113 
L 1647 0 
L 244 0 
L 244 113 
Q 441 113 512 153 
Q 584 194 625 287 
Q 666 381 666 647 
L 666 3247 
Q 666 3731 644 3842 
Q 622 3953 573 3993 
Q 525 4034 450 4034 
Q 369 4034 244 3984 
L 191 4094 
L 1044 4444 
L 1184 4444 
z
" transform="scale(0.015625)"/>
       <path id="TimesNewRomanPSMT-61" d="M 1822 413 
Q 1381 72 1269 19 
Q 1100 -59 909 -59 
Q 613 -59 420 144 
Q 228 347 228 678 
Q 228 888 322 1041 
Q 450 1253 767 1440 
Q 1084 1628 1822 1897 
L 1822 2009 
Q 1822 2438 1686 2597 
Q 1550 2756 1291 2756 
Q 1094 2756 978 2650 
Q 859 2544 859 2406 
L 866 2225 
Q 866 2081 792 2003 
Q 719 1925 600 1925 
Q 484 1925 411 2006 
Q 338 2088 338 2228 
Q 338 2497 613 2722 
Q 888 2947 1384 2947 
Q 1766 2947 2009 2819 
Q 2194 2722 2281 2516 
Q 2338 2381 2338 1966 
L 2338 994 
Q 2338 584 2353 492 
Q 2369 400 2405 369 
Q 2441 338 2488 338 
Q 2538 338 2575 359 
Q 2641 400 2828 588 
L 2828 413 
Q 2478 -56 2159 -56 
Q 2006 -56 1915 50 
Q 1825 156 1822 413 
z
M 1822 616 
L 1822 1706 
Q 1350 1519 1213 1441 
Q 966 1303 859 1153 
Q 753 1003 753 825 
Q 753 600 887 451 
Q 1022 303 1197 303 
Q 1434 303 1822 616 
z
" transform="scale(0.015625)"/>
       <path id="TimesNewRomanPSMT-67" d="M 966 1044 
Q 703 1172 562 1401 
Q 422 1631 422 1909 
Q 422 2334 742 2640 
Q 1063 2947 1563 2947 
Q 1972 2947 2272 2747 
L 2878 2747 
Q 3013 2747 3034 2739 
Q 3056 2731 3066 2713 
Q 3084 2684 3084 2613 
Q 3084 2531 3069 2500 
Q 3059 2484 3036 2475 
Q 3013 2466 2878 2466 
L 2506 2466 
Q 2681 2241 2681 1891 
Q 2681 1491 2375 1206 
Q 2069 922 1553 922 
Q 1341 922 1119 984 
Q 981 866 932 777 
Q 884 688 884 625 
Q 884 572 936 522 
Q 988 472 1138 450 
Q 1225 438 1575 428 
Q 2219 413 2409 384 
Q 2700 344 2873 169 
Q 3047 -6 3047 -263 
Q 3047 -616 2716 -925 
Q 2228 -1381 1444 -1381 
Q 841 -1381 425 -1109 
Q 191 -953 191 -784 
Q 191 -709 225 -634 
Q 278 -519 444 -313 
Q 466 -284 763 25 
Q 600 122 533 198 
Q 466 275 466 372 
Q 466 481 555 628 
Q 644 775 966 1044 
z
M 1509 2797 
Q 1278 2797 1122 2612 
Q 966 2428 966 2047 
Q 966 1553 1178 1281 
Q 1341 1075 1591 1075 
Q 1828 1075 1981 1253 
Q 2134 1431 2134 1813 
Q 2134 2309 1919 2591 
Q 1759 2797 1509 2797 
z
M 934 0 
Q 788 -159 713 -296 
Q 638 -434 638 -550 
Q 638 -700 819 -813 
Q 1131 -1006 1722 -1006 
Q 2284 -1006 2551 -807 
Q 2819 -609 2819 -384 
Q 2819 -222 2659 -153 
Q 2497 -84 2016 -72 
Q 1313 -53 934 0 
z
" transform="scale(0.015625)"/>
      </defs>
      <use xlink:href="#TimesNewRomanPSMT-44"/>
      <use xlink:href="#TimesNewRomanPSMT-69" x="72.216797"/>
      <use xlink:href="#TimesNewRomanPSMT-66" x="100"/>
      <use xlink:href="#TimesNewRomanPSMT-66" x="131.550781"/>
      <use xlink:href="#TimesNewRomanPSMT-65" x="164.851562"/>
      <use xlink:href="#TimesNewRomanPSMT-72" x="209.236328"/>
      <use xlink:href="#TimesNewRomanPSMT-65" x="242.537109"/>
      <use xlink:href="#TimesNewRomanPSMT-6e" x="286.921875"/>
      <use xlink:href="#TimesNewRomanPSMT-74" x="336.921875"/>
      <use xlink:href="#TimesNewRomanPSMT-20" x="364.705078"/>
      <use xlink:href="#TimesNewRomanPSMT-6c" x="389.705078"/>
      <use xlink:href="#TimesNewRomanPSMT-61" x="417.488281"/>
      <use xlink:href="#TimesNewRomanPSMT-67" x="461.873047"/>
     </g>
    </g>
   </g>
   <g id="matplotlib.axis_2">
    <g id="ytick_1">
     <g id="line2d_33">
      <path d="M 137.54 1253.025299 
L 2847.6 1253.025299 
" clip-path="url(#p0f531b394a)" style="fill: none; stroke: #b0b0b0; stroke-width: 0.8; stroke-linecap: square"/>
     </g>
     <g id="line2d_34">
      <defs>
       <path id="m8ffb4d7514" d="M 0 0 
L -3.5 0 
" style="stroke: #000000; stroke-width: 0.8"/>
      </defs>
      <g>
       <use xlink:href="#m8ffb4d7514" x="137.54" y="1253.025299" style="stroke: #000000; stroke-width: 0.8"/>
      </g>
     </g>
     <g id="text_18">
      <!-- −0.4 -->
      <g transform="translate(76.122812 1263.440924) scale(0.3 -0.3)">
       <defs>
        <path id="TimesNewRomanPSMT-2e" d="M 800 606 
Q 947 606 1047 504 
Q 1147 403 1147 259 
Q 1147 116 1045 14 
Q 944 -88 800 -88 
Q 656 -88 554 14 
Q 453 116 453 259 
Q 453 406 554 506 
Q 656 606 800 606 
z
" transform="scale(0.015625)"/>
       </defs>
       <use xlink:href="#TimesNewRomanPSMT-2212"/>
       <use xlink:href="#TimesNewRomanPSMT-30" x="56.396484"/>
       <use xlink:href="#TimesNewRomanPSMT-2e" x="106.396484"/>
       <use xlink:href="#TimesNewRomanPSMT-34" x="131.396484"/>
      </g>
     </g>
    </g>
    <g id="ytick_2">
     <g id="line2d_35">
      <path d="M 137.54 1087.073892 
L 2847.6 1087.073892 
" clip-path="url(#p0f531b394a)" style="fill: none; stroke: #b0b0b0; stroke-width: 0.8; stroke-linecap: square"/>
     </g>
     <g id="line2d_36">
      <g>
       <use xlink:href="#m8ffb4d7514" x="137.54" y="1087.073892" style="stroke: #000000; stroke-width: 0.8"/>
      </g>
     </g>
     <g id="text_19">
      <!-- −0.2 -->
      <g transform="translate(76.122812 1097.489517) scale(0.3 -0.3)">
       <use xlink:href="#TimesNewRomanPSMT-2212"/>
       <use xlink:href="#TimesNewRomanPSMT-30" x="56.396484"/>
       <use xlink:href="#TimesNewRomanPSMT-2e" x="106.396484"/>
       <use xlink:href="#TimesNewRomanPSMT-32" x="131.396484"/>
      </g>
     </g>
    </g>
    <g id="ytick_3">
     <g id="line2d_37">
      <path d="M 137.54 921.122486 
L 2847.6 921.122486 
" clip-path="url(#p0f531b394a)" style="fill: none; stroke: #b0b0b0; stroke-width: 0.8; stroke-linecap: square"/>
     </g>
     <g id="line2d_38">
      <g>
       <use xlink:href="#m8ffb4d7514" x="137.54" y="921.122486" style="stroke: #000000; stroke-width: 0.8"/>
      </g>
     </g>
     <g id="text_20">
      <!-- 0.0 -->
      <g transform="translate(93.04 931.538111) scale(0.3 -0.3)">
       <use xlink:href="#TimesNewRomanPSMT-30"/>
       <use xlink:href="#TimesNewRomanPSMT-2e" x="50"/>
       <use xlink:href="#TimesNewRomanPSMT-30" x="75"/>
      </g>
     </g>
    </g>
    <g id="ytick_4">
     <g id="line2d_39">
      <path d="M 137.54 755.17108 
L 2847.6 755.17108 
" clip-path="url(#p0f531b394a)" style="fill: none; stroke: #b0b0b0; stroke-width: 0.8; stroke-linecap: square"/>
     </g>
     <g id="line2d_40">
      <g>
       <use xlink:href="#m8ffb4d7514" x="137.54" y="755.17108" style="stroke: #000000; stroke-width: 0.8"/>
      </g>
     </g>
     <g id="text_21">
      <!-- 0.2 -->
      <g transform="translate(93.04 765.586705) scale(0.3 -0.3)">
       <use xlink:href="#TimesNewRomanPSMT-30"/>
       <use xlink:href="#TimesNewRomanPSMT-2e" x="50"/>
       <use xlink:href="#TimesNewRomanPSMT-32" x="75"/>
      </g>
     </g>
    </g>
    <g id="ytick_5">
     <g id="line2d_41">
      <path d="M 137.54 589.219673 
L 2847.6 589.219673 
" clip-path="url(#p0f531b394a)" style="fill: none; stroke: #b0b0b0; stroke-width: 0.8; stroke-linecap: square"/>
     </g>
     <g id="line2d_42">
      <g>
       <use xlink:href="#m8ffb4d7514" x="137.54" y="589.219673" style="stroke: #000000; stroke-width: 0.8"/>
      </g>
     </g>
     <g id="text_22">
      <!-- 0.4 -->
      <g transform="translate(93.04 599.635298) scale(0.3 -0.3)">
       <use xlink:href="#TimesNewRomanPSMT-30"/>
       <use xlink:href="#TimesNewRomanPSMT-2e" x="50"/>
       <use xlink:href="#TimesNewRomanPSMT-34" x="75"/>
      </g>
     </g>
    </g>
    <g id="ytick_6">
     <g id="line2d_43">
      <path d="M 137.54 423.268267 
L 2847.6 423.268267 
" clip-path="url(#p0f531b394a)" style="fill: none; stroke: #b0b0b0; stroke-width: 0.8; stroke-linecap: square"/>
     </g>
     <g id="line2d_44">
      <g>
       <use xlink:href="#m8ffb4d7514" x="137.54" y="423.268267" style="stroke: #000000; stroke-width: 0.8"/>
      </g>
     </g>
     <g id="text_23">
      <!-- 0.6 -->
      <g transform="translate(93.04 433.683892) scale(0.3 -0.3)">
       <use xlink:href="#TimesNewRomanPSMT-30"/>
       <use xlink:href="#TimesNewRomanPSMT-2e" x="50"/>
       <use xlink:href="#TimesNewRomanPSMT-36" x="75"/>
      </g>
     </g>
    </g>
    <g id="ytick_7">
     <g id="line2d_45">
      <path d="M 137.54 257.316861 
L 2847.6 257.316861 
" clip-path="url(#p0f531b394a)" style="fill: none; stroke: #b0b0b0; stroke-width: 0.8; stroke-linecap: square"/>
     </g>
     <g id="line2d_46">
      <g>
       <use xlink:href="#m8ffb4d7514" x="137.54" y="257.316861" style="stroke: #000000; stroke-width: 0.8"/>
      </g>
     </g>
     <g id="text_24">
      <!-- 0.8 -->
      <g transform="translate(93.04 267.732486) scale(0.3 -0.3)">
       <use xlink:href="#TimesNewRomanPSMT-30"/>
       <use xlink:href="#TimesNewRomanPSMT-2e" x="50"/>
       <use xlink:href="#TimesNewRomanPSMT-38" x="75"/>
      </g>
     </g>
    </g>
    <g id="ytick_8">
     <g id="line2d_47">
      <path d="M 137.54 91.365455 
L 2847.6 91.365455 
" clip-path="url(#p0f531b394a)" style="fill: none; stroke: #b0b0b0; stroke-width: 0.8; stroke-linecap: square"/>
     </g>
     <g id="line2d_48">
      <g>
       <use xlink:href="#m8ffb4d7514" x="137.54" y="91.365455" style="stroke: #000000; stroke-width: 0.8"/>
      </g>
     </g>
     <g id="text_25">
      <!-- 1.0 -->
      <g transform="translate(93.04 101.78108) scale(0.3 -0.3)">
       <use xlink:href="#TimesNewRomanPSMT-31"/>
       <use xlink:href="#TimesNewRomanPSMT-2e" x="50"/>
       <use xlink:href="#TimesNewRomanPSMT-30" x="75"/>
      </g>
     </g>
    </g>
    <g id="text_26">
     <!-- Spearman correlation coefficient -->
     <g transform="translate(62.882062 963.70325) rotate(-90) scale(0.432 -0.432)">
      <defs>
       <path id="TimesNewRomanPSMT-53" d="M 2934 4334 
L 2934 2869 
L 2819 2869 
Q 2763 3291 2617 3541 
Q 2472 3791 2203 3937 
Q 1934 4084 1647 4084 
Q 1322 4084 1109 3886 
Q 897 3688 897 3434 
Q 897 3241 1031 3081 
Q 1225 2847 1953 2456 
Q 2547 2138 2764 1967 
Q 2981 1797 3098 1565 
Q 3216 1334 3216 1081 
Q 3216 600 2842 251 
Q 2469 -97 1881 -97 
Q 1697 -97 1534 -69 
Q 1438 -53 1133 45 
Q 828 144 747 144 
Q 669 144 623 97 
Q 578 50 556 -97 
L 441 -97 
L 441 1356 
L 556 1356 
Q 638 900 775 673 
Q 913 447 1195 297 
Q 1478 147 1816 147 
Q 2206 147 2432 353 
Q 2659 559 2659 841 
Q 2659 997 2573 1156 
Q 2488 1316 2306 1453 
Q 2184 1547 1640 1851 
Q 1097 2156 867 2337 
Q 638 2519 519 2737 
Q 400 2956 400 3219 
Q 400 3675 750 4004 
Q 1100 4334 1641 4334 
Q 1978 4334 2356 4169 
Q 2531 4091 2603 4091 
Q 2684 4091 2736 4139 
Q 2788 4188 2819 4334 
L 2934 4334 
z
" transform="scale(0.015625)"/>
       <path id="TimesNewRomanPSMT-70" d="M -6 2578 
L 875 2934 
L 994 2934 
L 994 2266 
Q 1216 2644 1439 2795 
Q 1663 2947 1909 2947 
Q 2341 2947 2628 2609 
Q 2981 2197 2981 1534 
Q 2981 794 2556 309 
Q 2206 -88 1675 -88 
Q 1444 -88 1275 -22 
Q 1150 25 994 166 
L 994 -706 
Q 994 -1000 1030 -1079 
Q 1066 -1159 1155 -1206 
Q 1244 -1253 1478 -1253 
L 1478 -1369 
L -22 -1369 
L -22 -1253 
L 56 -1253 
Q 228 -1256 350 -1188 
Q 409 -1153 442 -1076 
Q 475 -1000 475 -688 
L 475 2019 
Q 475 2297 450 2372 
Q 425 2447 370 2484 
Q 316 2522 222 2522 
Q 147 2522 31 2478 
L -6 2578 
z
M 994 2081 
L 994 1013 
Q 994 666 1022 556 
Q 1066 375 1236 237 
Q 1406 100 1666 100 
Q 1978 100 2172 344 
Q 2425 663 2425 1241 
Q 2425 1897 2138 2250 
Q 1938 2494 1663 2494 
Q 1513 2494 1366 2419 
Q 1253 2363 994 2081 
z
" transform="scale(0.015625)"/>
       <path id="TimesNewRomanPSMT-6d" d="M 1050 2338 
Q 1363 2650 1419 2697 
Q 1559 2816 1721 2881 
Q 1884 2947 2044 2947 
Q 2313 2947 2506 2790 
Q 2700 2634 2766 2338 
Q 3088 2713 3309 2830 
Q 3531 2947 3766 2947 
Q 3994 2947 4170 2830 
Q 4347 2713 4450 2447 
Q 4519 2266 4519 1878 
L 4519 647 
Q 4519 378 4559 278 
Q 4591 209 4675 161 
Q 4759 113 4950 113 
L 4950 0 
L 3538 0 
L 3538 113 
L 3597 113 
Q 3781 113 3884 184 
Q 3956 234 3988 344 
Q 4000 397 4000 647 
L 4000 1878 
Q 4000 2228 3916 2372 
Q 3794 2572 3525 2572 
Q 3359 2572 3192 2489 
Q 3025 2406 2788 2181 
L 2781 2147 
L 2788 2013 
L 2788 647 
Q 2788 353 2820 281 
Q 2853 209 2943 161 
Q 3034 113 3253 113 
L 3253 0 
L 1806 0 
L 1806 113 
Q 2044 113 2133 169 
Q 2222 225 2256 338 
Q 2272 391 2272 647 
L 2272 1878 
Q 2272 2228 2169 2381 
Q 2031 2581 1784 2581 
Q 1616 2581 1450 2491 
Q 1191 2353 1050 2181 
L 1050 647 
Q 1050 366 1089 281 
Q 1128 197 1204 155 
Q 1281 113 1516 113 
L 1516 0 
L 100 0 
L 100 113 
Q 297 113 375 155 
Q 453 197 493 289 
Q 534 381 534 647 
L 534 1741 
Q 534 2213 506 2350 
Q 484 2453 437 2492 
Q 391 2531 309 2531 
Q 222 2531 100 2484 
L 53 2597 
L 916 2947 
L 1050 2947 
L 1050 2338 
z
" transform="scale(0.015625)"/>
       <path id="TimesNewRomanPSMT-63" d="M 2631 1088 
Q 2516 522 2178 217 
Q 1841 -88 1431 -88 
Q 944 -88 581 321 
Q 219 731 219 1428 
Q 219 2103 620 2525 
Q 1022 2947 1584 2947 
Q 2006 2947 2278 2723 
Q 2550 2500 2550 2259 
Q 2550 2141 2473 2067 
Q 2397 1994 2259 1994 
Q 2075 1994 1981 2113 
Q 1928 2178 1911 2362 
Q 1894 2547 1784 2644 
Q 1675 2738 1481 2738 
Q 1169 2738 978 2506 
Q 725 2200 725 1697 
Q 725 1184 976 792 
Q 1228 400 1656 400 
Q 1963 400 2206 609 
Q 2378 753 2541 1131 
L 2631 1088 
z
" transform="scale(0.015625)"/>
       <path id="TimesNewRomanPSMT-6f" d="M 1600 2947 
Q 2250 2947 2644 2453 
Q 2978 2031 2978 1484 
Q 2978 1100 2793 706 
Q 2609 313 2286 112 
Q 1963 -88 1566 -88 
Q 919 -88 538 428 
Q 216 863 216 1403 
Q 216 1797 411 2186 
Q 606 2575 925 2761 
Q 1244 2947 1600 2947 
z
M 1503 2744 
Q 1338 2744 1170 2645 
Q 1003 2547 900 2300 
Q 797 2053 797 1666 
Q 797 1041 1045 587 
Q 1294 134 1700 134 
Q 2003 134 2200 384 
Q 2397 634 2397 1244 
Q 2397 2006 2069 2444 
Q 1847 2744 1503 2744 
z
" transform="scale(0.015625)"/>
      </defs>
      <use xlink:href="#TimesNewRomanPSMT-53"/>
      <use xlink:href="#TimesNewRomanPSMT-70" x="55.615234"/>
      <use xlink:href="#TimesNewRomanPSMT-65" x="105.615234"/>
      <use xlink:href="#TimesNewRomanPSMT-61" x="150"/>
      <use xlink:href="#TimesNewRomanPSMT-72" x="194.384766"/>
      <use xlink:href="#TimesNewRomanPSMT-6d" x="227.685547"/>
      <use xlink:href="#TimesNewRomanPSMT-61" x="305.46875"/>
      <use xlink:href="#TimesNewRomanPSMT-6e" x="349.853516"/>
      <use xlink:href="#TimesNewRomanPSMT-20" x="399.853516"/>
      <use xlink:href="#TimesNewRomanPSMT-63" x="424.853516"/>
      <use xlink:href="#TimesNewRomanPSMT-6f" x="469.238281"/>
      <use xlink:href="#TimesNewRomanPSMT-72" x="519.238281"/>
      <use xlink:href="#TimesNewRomanPSMT-72" x="552.539062"/>
      <use xlink:href="#TimesNewRomanPSMT-65" x="585.839844"/>
      <use xlink:href="#TimesNewRomanPSMT-6c" x="630.224609"/>
      <use xlink:href="#TimesNewRomanPSMT-61" x="658.007812"/>
      <use xlink:href="#TimesNewRomanPSMT-74" x="702.392578"/>
      <use xlink:href="#TimesNewRomanPSMT-69" x="730.175781"/>
      <use xlink:href="#TimesNewRomanPSMT-6f" x="757.958984"/>
      <use xlink:href="#TimesNewRomanPSMT-6e" x="807.958984"/>
      <use xlink:href="#TimesNewRomanPSMT-20" x="857.958984"/>
      <use xlink:href="#TimesNewRomanPSMT-63" x="882.958984"/>
      <use xlink:href="#TimesNewRomanPSMT-6f" x="927.34375"/>
      <use xlink:href="#TimesNewRomanPSMT-65" x="977.34375"/>
      <use xlink:href="#TimesNewRomanPSMT-66" x="1021.728516"/>
      <use xlink:href="#TimesNewRomanPSMT-66" x="1053.279297"/>
      <use xlink:href="#TimesNewRomanPSMT-69" x="1086.580078"/>
      <use xlink:href="#TimesNewRomanPSMT-63" x="1114.363281"/>
      <use xlink:href="#TimesNewRomanPSMT-69" x="1158.748047"/>
      <use xlink:href="#TimesNewRomanPSMT-65" x="1186.53125"/>
      <use xlink:href="#TimesNewRomanPSMT-6e" x="1230.916016"/>
      <use xlink:href="#TimesNewRomanPSMT-74" x="1280.916016"/>
     </g>
    </g>
   </g>
   <g id="line2d_49">
    <path d="M 181.250645 1003.12894 
L 206.713157 1000.765757 
L 240.663173 997.313945 
L 283.100692 992.719206 
L 342.51322 986.270739 
L 367.975731 983.672585 
L 393.438243 981.303132 
L 410.413251 979.921725 
L 427.388259 978.749565 
L 444.363267 977.830072 
L 461.338274 977.168109 
L 503.775794 975.737832 
L 520.750802 974.844751 
L 529.238306 974.25118 
L 537.72581 973.535709 
L 546.213313 972.69728 
L 563.188321 970.676565 
L 580.163329 968.239242 
L 597.138337 965.435556 
L 614.113345 962.315748 
L 631.088353 958.918674 
L 648.06336 955.18407 
L 656.550864 953.15544 
L 665.038368 951.000639 
L 673.525872 948.7057 
L 682.013376 946.25666 
L 690.50088 943.639553 
L 698.988384 940.840413 
L 707.475888 937.84534 
L 715.963392 934.653728 
L 724.450896 931.294645 
L 741.425904 924.206388 
L 783.863423 905.870668 
L 792.350927 902.362731 
L 809.325935 895.70447 
L 826.300943 889.391495 
L 860.250958 877.00577 
L 877.225966 870.53519 
L 894.200974 863.661739 
L 919.663486 853.081896 
L 928.15099 849.6619 
L 936.638494 846.369726 
L 945.125997 843.250079 
L 953.613501 840.347667 
L 962.101005 837.707195 
L 970.588509 835.372866 
L 979.076013 833.349733 
L 987.563517 831.576493 
L 996.051021 829.985416 
L 1030.001037 824.088137 
L 1038.488541 822.391924 
L 1046.976044 820.471492 
L 1055.463548 818.259112 
L 1063.951052 815.715918 
L 1072.438556 812.918502 
L 1097.901068 804.055497 
L 1106.388572 801.295766 
L 1114.876076 798.809099 
L 1123.36358 796.700952 
L 1131.851084 795.076782 
L 1140.338588 794.042048 
L 1148.826091 793.689444 
L 1157.313595 793.97994 
L 1165.801099 794.796789 
L 1174.288603 796.02224 
L 1182.776107 797.538543 
L 1208.238619 802.655056 
L 1216.726123 804.15726 
L 1225.213627 805.361563 
L 1233.701131 806.152763 
L 1242.188635 806.514696 
L 1250.676138 806.559856 
L 1284.626154 805.994633 
L 1293.113658 806.272324 
L 1301.601162 806.959799 
L 1310.088666 808.178151 
L 1318.57617 810.048421 
L 1327.063674 812.622688 
L 1335.551178 815.748125 
L 1344.038681 819.234019 
L 1361.013689 826.524331 
L 1369.501193 829.947326 
L 1377.988697 832.967929 
L 1386.476201 835.395429 
L 1394.963705 837.039114 
L 1403.451209 837.708272 
L 1411.938713 837.242041 
L 1420.426217 835.700181 
L 1428.913721 833.241329 
L 1437.401225 830.024594 
L 1445.888728 826.209082 
L 1454.376232 821.953898 
L 1471.35124 812.760941 
L 1479.838744 808.141382 
L 1488.326248 803.718577 
L 1496.813752 799.647149 
L 1505.301256 795.97861 
L 1513.78876 792.661362 
L 1522.276264 789.639321 
L 1530.763768 786.856405 
L 1539.251272 784.256531 
L 1556.226279 779.381581 
L 1573.201287 774.56581 
L 1581.688791 772.040071 
L 1598.663799 766.685446 
L 1615.638807 761.328385 
L 1624.126311 758.809881 
L 1632.613815 756.483898 
L 1641.101319 754.41481 
L 1649.588822 752.666994 
L 1658.076326 751.304826 
L 1666.56383 750.392681 
L 1675.051334 749.973815 
L 1683.538838 749.977229 
L 1692.026342 750.29348 
L 1709.00135 751.426591 
L 1717.488854 752.024503 
L 1725.976358 752.497351 
L 1734.463862 752.735663 
L 1742.951365 752.629963 
L 1751.438869 752.070776 
L 1759.926373 750.95573 
L 1768.413877 749.2887 
L 1776.901381 747.155355 
L 1785.388885 744.643468 
L 1793.876389 741.840809 
L 1810.851397 735.714269 
L 1827.826405 729.477914 
L 1836.313909 726.537986 
L 1844.801412 723.833454 
L 1853.288916 721.415497 
L 1861.77642 719.274058 
L 1870.263924 717.393148 
L 1878.751428 715.756778 
L 1887.238932 714.34896 
L 1895.726436 713.153704 
L 1904.21394 712.155022 
L 1912.701444 711.336924 
L 1921.188948 710.683423 
L 1929.676452 710.178528 
L 1946.651459 709.529704 
L 1997.576483 708.232871 
L 2006.063987 707.778989 
L 2014.551491 707.17274 
L 2023.038995 706.38679 
L 2031.526499 705.438504 
L 2048.501506 703.230213 
L 2073.964018 699.799645 
L 2082.451522 698.800932 
L 2090.939026 697.948086 
L 2099.42653 697.285185 
L 2107.914034 696.855201 
L 2116.401538 696.65807 
L 2124.889042 696.637827 
L 2141.864049 696.889207 
L 2158.839057 697.131734 
L 2167.326561 697.100426 
L 2175.814065 696.887804 
L 2184.301569 696.434166 
L 2192.789073 695.679837 
L 2201.276577 694.59874 
L 2209.764081 693.264625 
L 2226.739089 690.206173 
L 2235.226593 688.666253 
L 2243.714096 687.242147 
L 2252.2016 686.026064 
L 2260.689104 685.110211 
L 2269.176608 684.586796 
L 2277.664112 684.548029 
L 2286.151616 685.066363 
L 2294.63912 686.068278 
L 2303.126624 687.414821 
L 2328.589136 692.129626 
L 2337.07664 693.462087 
L 2345.564143 694.442877 
L 2354.051647 694.932738 
L 2362.539151 694.792409 
L 2371.026655 693.88887 
L 2379.514159 692.232592 
L 2388.001663 689.977539 
L 2396.489167 687.283912 
L 2404.976671 684.311914 
L 2421.951679 678.173615 
L 2430.439183 675.327718 
L 2438.926687 672.84426 
L 2447.41419 670.883443 
L 2455.901694 669.604884 
L 2464.389198 669.044078 
L 2472.876702 668.959595 
L 2489.85171 669.103982 
L 2498.339214 668.775047 
L 2506.826718 667.806823 
L 2515.314222 665.920407 
L 2523.801726 662.836896 
L 2532.28923 658.277388 
L 2540.776733 651.962979 
L 2549.264237 643.683349 
L 2557.751741 633.599115 
L 2566.239245 621.995734 
L 2574.726749 609.158757 
L 2583.214253 595.373735 
L 2591.701757 580.926219 
L 2617.164269 536.464212 
L 2625.651773 522.222226 
L 2634.139277 508.727011 
L 2642.62678 495.968969 
L 2651.114284 483.725529 
L 2676.576796 447.80234 
L 2685.0643 435.336826 
L 2693.551804 422.245673 
L 2702.039308 408.300832 
L 2710.526812 393.274255 
L 2719.014316 376.937892 
L 2727.50182 359.063697 
L 2735.989324 339.42362 
L 2744.476827 317.789613 
L 2752.964331 293.933627 
L 2761.451835 267.627615 
L 2769.939339 238.643527 
L 2778.426843 206.753315 
L 2786.914347 171.728932 
L 2795.401851 133.342328 
L 2803.889355 91.365455 
L 2803.889355 91.365455 
" clip-path="url(#p0f531b394a)" style="fill: none; stroke: #1f77b4; stroke-width: 2; stroke-linecap: square"/>
   </g>
   <g id="line2d_50">
    <path d="M 181.250645 872.700894 
L 189.738149 874.984215 
L 198.225653 876.666322 
L 206.713157 877.794612 
L 215.200661 878.416482 
L 223.688165 878.57933 
L 232.175669 878.330551 
L 240.663173 877.717543 
L 249.150676 876.787702 
L 257.63818 875.588426 
L 266.125684 874.167111 
L 274.613188 872.571154 
L 291.588196 869.044901 
L 317.050708 863.630628 
L 325.538212 861.982152 
L 334.025716 860.490812 
L 342.51322 859.204005 
L 351.000723 858.169127 
L 359.488227 857.43274 
L 367.975731 857.008917 
L 376.463235 856.869529 
L 384.950739 856.983625 
L 393.438243 857.320257 
L 401.925747 857.848474 
L 410.413251 858.537327 
L 427.388259 860.27314 
L 452.85077 863.328729 
L 461.338274 864.455644 
L 469.825778 865.723877 
L 478.313282 867.196445 
L 486.800786 868.936366 
L 495.28829 871.006656 
L 503.775794 873.470332 
L 512.263298 876.390413 
L 520.750802 879.829915 
L 529.238306 883.851855 
L 537.72581 888.49735 
L 546.213313 893.645651 
L 563.188321 904.67715 
L 571.675825 910.173072 
L 580.163329 915.397592 
L 588.650833 920.157073 
L 597.138337 924.257877 
L 605.625841 927.506367 
L 614.113345 929.708905 
L 622.600849 930.680304 
L 631.088353 930.429773 
L 639.575857 929.16091 
L 648.06336 927.085769 
L 656.550864 924.416402 
L 665.038368 921.364859 
L 682.013376 914.963456 
L 690.50088 912.0377 
L 698.988384 909.577976 
L 707.475888 907.79576 
L 715.963392 906.780107 
L 724.450896 906.346939 
L 732.9384 906.275222 
L 749.913407 906.332008 
L 758.400911 906.018443 
L 766.888415 905.182193 
L 775.375919 903.602225 
L 783.863423 901.057505 
L 792.350927 897.326999 
L 800.838431 892.250497 
L 809.325935 885.996773 
L 817.813439 878.84532 
L 826.300943 871.075715 
L 851.763454 846.853739 
L 860.250958 839.40728 
L 868.738462 832.740549 
L 877.225966 827.133121 
L 885.71347 822.848471 
L 894.200974 819.909179 
L 902.688478 818.152376 
L 911.175982 817.410427 
L 919.663486 817.515694 
L 928.15099 818.30054 
L 936.638494 819.597328 
L 945.125997 821.238421 
L 962.101005 824.882975 
L 970.588509 826.552269 
L 979.076013 827.983172 
L 996.051021 830.400954 
L 1013.026029 832.748919 
L 1021.513533 834.092552 
L 1030.001037 835.653729 
L 1038.488541 837.510782 
L 1046.976044 839.742044 
L 1055.463548 842.425848 
L 1063.951052 845.611661 
L 1072.438556 849.233496 
L 1080.92606 853.1965 
L 1089.413564 857.40582 
L 1123.36358 874.80921 
L 1131.851084 878.827322 
L 1140.338588 882.522635 
L 1148.826091 885.807037 
L 1157.313595 888.66201 
L 1165.801099 891.110096 
L 1174.288603 893.174364 
L 1182.776107 894.877884 
L 1191.263611 896.243728 
L 1199.751115 897.294966 
L 1208.238619 898.054667 
L 1216.726123 898.545904 
L 1225.213627 898.791745 
L 1233.701131 898.81572 
L 1242.188635 898.659164 
L 1276.13865 897.532425 
L 1284.626154 897.455676 
L 1293.113658 897.592927 
L 1301.601162 898.010191 
L 1310.088666 898.77348 
L 1318.57617 899.948778 
L 1327.063674 901.561528 
L 1335.551178 903.516729 
L 1352.526185 907.985385 
L 1361.013689 910.264296 
L 1369.501193 912.416563 
L 1377.988697 914.324913 
L 1386.476201 915.872075 
L 1394.963705 916.940773 
L 1403.451209 917.413737 
L 1411.938713 917.19523 
L 1420.426217 916.348706 
L 1428.913721 915.008966 
L 1437.401225 913.311147 
L 1454.376232 909.381819 
L 1462.863736 907.420586 
L 1471.35124 905.641822 
L 1479.838744 904.180666 
L 1488.326248 903.172254 
L 1496.813752 902.745816 
L 1505.301256 902.894711 
L 1513.78876 903.476427 
L 1522.276264 904.342545 
L 1539.251272 906.33431 
L 1547.738775 907.163117 
L 1556.226279 907.682649 
L 1564.713783 907.744486 
L 1573.201287 907.200208 
L 1581.688791 905.901813 
L 1590.176295 903.789484 
L 1598.663799 901.000165 
L 1607.151303 897.69742 
L 1615.638807 894.044816 
L 1641.101319 882.623498 
L 1649.588822 879.207109 
L 1658.076326 876.258687 
L 1666.56383 873.941798 
L 1675.051334 872.383561 
L 1683.538838 871.513966 
L 1692.026342 871.19666 
L 1700.513846 871.295238 
L 1709.00135 871.673299 
L 1725.976358 872.722252 
L 1734.463862 873.120339 
L 1742.951365 873.252293 
L 1751.438869 872.981713 
L 1759.926373 872.183571 
L 1768.413877 870.903052 
L 1776.901381 869.316371 
L 1793.876389 865.942872 
L 1802.363893 864.515227 
L 1810.851397 863.499766 
L 1819.338901 863.076075 
L 1827.826405 863.423742 
L 1836.313909 864.722352 
L 1844.801412 867.149296 
L 1853.288916 870.712055 
L 1861.77642 875.130101 
L 1870.263924 880.095008 
L 1887.238932 890.431705 
L 1895.726436 895.186644 
L 1904.21394 899.254741 
L 1912.701444 902.327571 
L 1921.188948 904.09671 
L 1929.676452 904.25373 
L 1938.163956 902.600948 
L 1946.651459 899.383645 
L 1955.138963 894.957843 
L 1963.626467 889.679564 
L 1972.113971 883.90483 
L 1980.601475 877.989663 
L 1989.088979 872.290086 
L 1997.576483 867.16212 
L 2006.063987 862.961788 
L 2014.551491 860.045112 
L 2023.038995 858.729848 
L 2031.526499 858.938706 
L 2040.014003 860.36134 
L 2048.501506 862.684392 
L 2056.98901 865.594505 
L 2073.964018 871.922477 
L 2082.451522 874.713621 
L 2090.939026 876.838394 
L 2099.42653 877.983436 
L 2107.914034 877.842368 
L 2116.401538 876.380082 
L 2124.889042 873.913865 
L 2133.376546 870.784554 
L 2150.351553 863.899994 
L 2158.839057 860.826419 
L 2167.326561 858.453096 
L 2175.814065 857.120863 
L 2184.301569 857.170555 
L 2192.789073 858.942888 
L 2201.276577 862.615489 
L 2209.764081 867.881405 
L 2218.251585 874.344088 
L 2226.739089 881.606991 
L 2243.714096 896.94727 
L 2252.2016 904.231552 
L 2260.689104 910.729867 
L 2269.176608 916.045667 
L 2277.664112 919.782405 
L 2286.151616 921.603187 
L 2294.63912 921.611978 
L 2303.126624 920.110342 
L 2311.614128 917.400772 
L 2320.101632 913.785763 
L 2328.589136 909.567811 
L 2345.564143 900.53305 
L 2354.051647 896.321231 
L 2362.539151 892.716446 
L 2371.026655 890.011354 
L 2379.514159 888.272411 
L 2388.001663 887.339868 
L 2396.489167 887.044142 
L 2404.976671 887.215649 
L 2413.464175 887.684807 
L 2430.439183 888.837738 
L 2438.926687 889.182346 
L 2447.41419 889.14627 
L 2455.901694 888.560306 
L 2464.389198 887.335761 
L 2472.876702 885.563564 
L 2481.364206 883.35895 
L 2489.85171 880.837153 
L 2506.826718 875.302953 
L 2515.314222 872.521018 
L 2523.801726 869.882841 
L 2532.28923 867.503655 
L 2540.776733 865.498696 
L 2549.264237 863.964093 
L 2557.751741 862.892641 
L 2566.239245 862.242358 
L 2574.726749 861.971234 
L 2583.214253 862.037262 
L 2591.701757 862.398433 
L 2600.189261 863.012738 
L 2608.676765 863.838168 
L 2617.164269 864.832716 
L 2634.139277 867.162825 
L 2651.114284 869.79991 
L 2668.089292 872.763242 
L 2685.0643 876.093637 
L 2702.039308 879.831913 
L 2710.526812 881.86676 
L 2719.014316 884.018883 
L 2727.50182 886.293385 
L 2735.989324 888.695366 
L 2744.476827 891.229929 
L 2752.964331 893.902176 
L 2761.451835 896.71721 
L 2769.939339 899.680131 
L 2778.426843 902.796042 
L 2786.914347 906.070046 
L 2795.401851 909.507243 
L 2803.889355 913.112737 
L 2803.889355 913.112737 
" clip-path="url(#p0f531b394a)" style="fill: none; stroke: #ff7f0e; stroke-width: 2; stroke-linecap: square"/>
   </g>
   <g id="line2d_51">
    <path d="M 181.250645 726.772443 
L 189.738149 728.302283 
L 198.225653 729.338996 
L 206.713157 729.922303 
L 215.200661 730.091925 
L 223.688165 729.887584 
L 232.175669 729.349002 
L 240.663173 728.515899 
L 249.150676 727.427998 
L 257.63818 726.12502 
L 266.125684 724.646686 
L 283.100692 721.322839 
L 317.050708 714.318624 
L 325.538212 712.725004 
L 334.025716 711.273801 
L 342.51322 710.004736 
L 351.000723 708.95753 
L 359.488227 708.170757 
L 367.975731 707.638343 
L 376.463235 707.296214 
L 410.413251 706.471583 
L 418.900755 706.061652 
L 427.388259 705.434314 
L 435.875763 704.521621 
L 444.363267 703.255643 
L 452.85077 701.593143 
L 461.338274 699.564266 
L 469.825778 697.21272 
L 478.313282 694.582214 
L 486.800786 691.716457 
L 495.28829 688.65916 
L 512.263298 682.144777 
L 546.213313 668.711019 
L 563.188321 662.270947 
L 580.163329 656.173788 
L 588.650833 653.286684 
L 597.138337 650.524768 
L 605.625841 647.901193 
L 614.113345 645.429112 
L 622.600849 643.120845 
L 631.088353 640.969529 
L 648.06336 637.032751 
L 665.038368 633.404602 
L 690.50088 628.070725 
L 707.475888 624.27358 
L 732.9384 618.077994 
L 749.913407 614.083881 
L 758.400911 612.266744 
L 766.888415 610.631346 
L 775.375919 609.224033 
L 783.863423 608.09115 
L 792.350927 607.279043 
L 800.838431 606.824985 
L 809.325935 606.71719 
L 817.813439 606.927358 
L 826.300943 607.427178 
L 834.788447 608.188338 
L 843.275951 609.182527 
L 851.763454 610.381434 
L 860.250958 611.756746 
L 868.738462 613.280153 
L 885.71347 616.658404 
L 902.688478 620.321012 
L 953.613501 631.607608 
L 970.588509 635.010588 
L 987.563517 638.077187 
L 1013.026029 642.320815 
L 1038.488541 646.589221 
L 1055.463548 649.69987 
L 1072.438556 653.158223 
L 1089.413564 656.913908 
L 1114.876076 662.906748 
L 1157.313595 673.060907 
L 1165.801099 674.916227 
L 1174.288603 676.599032 
L 1182.776107 678.052712 
L 1191.263611 679.220654 
L 1199.751115 680.046247 
L 1208.238619 680.472879 
L 1216.726123 680.443939 
L 1225.213627 679.902816 
L 1233.701131 678.794207 
L 1242.188635 677.113716 
L 1250.676138 674.923075 
L 1259.163642 672.288436 
L 1267.651146 669.275948 
L 1276.13865 665.951764 
L 1284.626154 662.382035 
L 1301.601162 654.770547 
L 1327.063674 643.146885 
L 1352.526185 631.95844 
L 1377.988697 620.820682 
L 1394.963705 613.186388 
L 1411.938713 605.225632 
L 1437.401225 593.073686 
L 1445.888728 589.211281 
L 1454.376232 585.548756 
L 1462.863736 582.149567 
L 1471.35124 579.077169 
L 1479.838744 576.395016 
L 1488.326248 574.166564 
L 1496.813752 572.453069 
L 1505.301256 571.265198 
L 1513.78876 570.563032 
L 1522.276264 570.304453 
L 1530.763768 570.447342 
L 1539.251272 570.94958 
L 1547.738775 571.769047 
L 1556.226279 572.863626 
L 1564.713783 574.191197 
L 1573.201287 575.709642 
L 1590.176295 579.149791 
L 1624.126311 586.397888 
L 1632.613815 588.023003 
L 1641.101319 589.482961 
L 1649.588822 590.732568 
L 1658.076326 591.726626 
L 1666.56383 592.419939 
L 1675.051334 592.780507 
L 1683.538838 592.847695 
L 1692.026342 592.684889 
L 1709.00135 591.922902 
L 1725.976358 591.00177 
L 1734.463862 590.640031 
L 1742.951365 590.428714 
L 1751.438869 590.431221 
L 1759.926373 590.706986 
L 1768.413877 591.256028 
L 1776.901381 592.032634 
L 1785.388885 592.989914 
L 1802.363893 595.258934 
L 1827.826405 598.845256 
L 1836.313909 599.901881 
L 1844.801412 600.811428 
L 1861.77642 602.21565 
L 1878.751428 603.450591 
L 1887.238932 604.154647 
L 1895.726436 604.996463 
L 1904.21394 606.036065 
L 1912.701444 607.333481 
L 1921.188948 608.948737 
L 1929.676452 610.941859 
L 1938.163956 613.351821 
L 1946.651459 616.133384 
L 1955.138963 619.220253 
L 1963.626467 622.546137 
L 1980.601475 629.649772 
L 1997.576483 636.913944 
L 2006.063987 640.440499 
L 2014.551491 643.808308 
L 2023.038995 646.958472 
L 2031.526499 649.908413 
L 2048.501506 655.458014 
L 2065.476514 660.960788 
L 2073.964018 663.852195 
L 2082.451522 666.920992 
L 2090.939026 670.230212 
L 2099.42653 673.842886 
L 2107.914034 677.820576 
L 2116.401538 682.167653 
L 2124.889042 686.814197 
L 2133.376546 691.685322 
L 2150.351553 701.801774 
L 2167.326561 711.917923 
L 2175.814065 716.78867 
L 2184.301569 721.434686 
L 2192.789073 725.781097 
L 2201.276577 729.771672 
L 2209.764081 733.405557 
L 2218.251585 736.692139 
L 2226.739089 739.640805 
L 2235.226593 742.260942 
L 2243.714096 744.561936 
L 2252.2016 746.553174 
L 2260.689104 748.244042 
L 2269.176608 749.643927 
L 2277.664112 750.762216 
L 2286.151616 751.611696 
L 2294.63912 752.230283 
L 2303.126624 752.667159 
L 2320.101632 753.192708 
L 2345.564143 753.84903 
L 2354.051647 754.229537 
L 2362.539151 754.772967 
L 2371.026655 755.525882 
L 2379.514159 756.473394 
L 2413.464175 760.655997 
L 2421.951679 761.404752 
L 2430.439183 761.876735 
L 2438.926687 761.992938 
L 2447.41419 761.674355 
L 2455.901694 760.842251 
L 2464.389198 759.475401 
L 2472.876702 757.680901 
L 2481.364206 755.583209 
L 2506.826718 748.715547 
L 2515.314222 746.649656 
L 2523.801726 744.902858 
L 2532.28923 743.599612 
L 2540.776733 742.864373 
L 2549.264237 742.796087 
L 2557.751741 743.355706 
L 2566.239245 744.457742 
L 2574.726749 746.016672 
L 2583.214253 747.946973 
L 2591.701757 750.163122 
L 2608.676765 755.110871 
L 2625.651773 760.175735 
L 2634.139277 762.543147 
L 2651.114284 766.892244 
L 2676.576796 773.190703 
L 2685.0643 775.429165 
L 2693.551804 777.820042 
L 2702.039308 780.41309 
L 2710.526812 783.258066 
L 2719.014316 786.404726 
L 2727.50182 789.902827 
L 2735.989324 793.802124 
L 2744.476827 798.152374 
L 2752.964331 803.003334 
L 2761.451835 808.40476 
L 2769.939339 814.406407 
L 2778.426843 821.058033 
L 2786.914347 828.409394 
L 2795.401851 836.510246 
L 2803.889355 845.410345 
L 2803.889355 845.410345 
" clip-path="url(#p0f531b394a)" style="fill: none; stroke: #2ca02c; stroke-width: 2; stroke-linecap: square"/>
   </g>
   <g id="line2d_52">
    <path d="M 181.250645 750.274629 
L 206.713157 749.533922 
L 257.63818 748.218441 
L 274.613188 747.602075 
L 291.588196 746.793575 
L 308.563204 745.731022 
L 325.538212 744.352496 
L 342.51322 742.596078 
L 351.000723 741.55681 
L 359.488227 740.399867 
L 367.975731 739.118232 
L 376.463235 737.705802 
L 384.950739 736.156533 
L 393.438243 734.464384 
L 401.925747 732.623311 
L 410.413251 730.627274 
L 418.900755 728.470229 
L 427.388259 726.146135 
L 435.875763 723.648948 
L 444.363267 720.972636 
L 452.85077 718.123961 
L 469.825778 712.095643 
L 486.800786 705.971389 
L 495.28829 703.002792 
L 503.775794 700.165619 
L 512.263298 697.511673 
L 520.750802 695.092756 
L 529.238306 692.960671 
L 537.72581 691.158296 
L 546.213313 689.662543 
L 554.700817 688.420764 
L 563.188321 687.380166 
L 580.163329 685.691355 
L 605.625841 683.347244 
L 614.113345 682.40514 
L 622.600849 681.296696 
L 631.088353 680.017374 
L 648.06336 677.114938 
L 673.525872 672.557562 
L 682.013376 671.15898 
L 690.50088 669.893531 
L 698.988384 668.804933 
L 707.475888 667.93683 
L 715.963392 667.317174 
L 724.450896 666.938911 
L 732.9384 666.790248 
L 741.425904 666.859394 
L 749.913407 667.134557 
L 758.400911 667.603946 
L 766.888415 668.25577 
L 775.375919 669.078235 
L 783.863423 670.059552 
L 792.350927 671.187927 
L 800.838431 672.452945 
L 809.325935 673.851626 
L 817.813439 675.38349 
L 826.300943 677.048063 
L 834.788447 678.84487 
L 843.275951 680.773433 
L 851.763454 682.833278 
L 860.250958 685.023929 
L 868.738462 687.344909 
L 877.225966 689.795744 
L 894.200974 695.068486 
L 911.175982 700.699162 
L 953.613501 715.042278 
L 970.588509 720.36585 
L 979.076013 722.841906 
L 987.563517 725.167071 
L 996.051021 727.322189 
L 1004.538525 729.288106 
L 1013.026029 731.045669 
L 1021.513533 732.575723 
L 1030.001037 733.859114 
L 1038.488541 734.876688 
L 1046.976044 735.609291 
L 1055.463548 736.037768 
L 1063.951052 736.151218 
L 1072.438556 735.971746 
L 1080.92606 735.529712 
L 1089.413564 734.855473 
L 1097.901068 733.979389 
L 1106.388572 732.931816 
L 1123.36358 730.443641 
L 1140.338588 727.633816 
L 1165.801099 723.172557 
L 1182.776107 719.87436 
L 1191.263611 718.059419 
L 1199.751115 716.103388 
L 1208.238619 713.983374 
L 1216.726123 711.676482 
L 1225.213627 709.159817 
L 1233.701131 706.411269 
L 1242.188635 703.439263 
L 1250.676138 700.291888 
L 1267.651146 693.67399 
L 1284.626154 686.963494 
L 1293.113658 683.70037 
L 1301.601162 680.566316 
L 1310.088666 677.612071 
L 1318.57617 674.888353 
L 1327.063674 672.416298 
L 1344.038681 667.943878 
L 1361.013689 663.546962 
L 1369.501193 661.169285 
L 1377.988697 658.561447 
L 1386.476201 655.640434 
L 1394.963705 652.323233 
L 1403.451209 648.526833 
L 1411.938713 644.188729 
L 1420.426217 639.397999 
L 1428.913721 634.311654 
L 1445.888728 623.881461 
L 1454.376232 618.852281 
L 1462.863736 614.156824 
L 1471.35124 609.952424 
L 1479.838744 606.396416 
L 1488.326248 603.646133 
L 1496.813752 601.851968 
L 1505.301256 601.004651 
L 1513.78876 600.935248 
L 1522.276264 601.467885 
L 1530.763768 602.426685 
L 1556.226279 606.101322 
L 1564.713783 607.006029 
L 1573.201287 607.457525 
L 1581.688791 607.280341 
L 1590.176295 606.385222 
L 1598.663799 604.875265 
L 1607.151303 602.879593 
L 1615.638807 600.527328 
L 1632.613815 595.269516 
L 1641.101319 592.622214 
L 1649.588822 590.134812 
L 1658.076326 587.936434 
L 1666.56383 586.156203 
L 1675.051334 584.898942 
L 1683.538838 584.138045 
L 1692.026342 583.802673 
L 1700.513846 583.821955 
L 1709.00135 584.125017 
L 1717.488854 584.640988 
L 1734.463862 586.028168 
L 1751.438869 587.416517 
L 1759.926373 587.938892 
L 1776.901381 588.663104 
L 1793.876389 589.39873 
L 1802.363893 589.936837 
L 1810.851397 590.677014 
L 1819.338901 591.685667 
L 1827.826405 593.0292 
L 1836.313909 594.77402 
L 1844.801412 596.985954 
L 1853.288916 599.686184 
L 1861.77642 602.820209 
L 1870.263924 606.3262 
L 1878.751428 610.142324 
L 1887.238932 614.206751 
L 1895.726436 618.457651 
L 1912.701444 627.271545 
L 1929.676452 636.089358 
L 1946.651459 644.507897 
L 1963.626467 652.489778 
L 1980.601475 660.089071 
L 1997.576483 667.359844 
L 2014.551491 674.356166 
L 2031.526499 681.116249 
L 2048.501506 687.578238 
L 2065.476514 693.641356 
L 2073.964018 696.491818 
L 2082.451522 699.204738 
L 2090.939026 701.767508 
L 2099.42653 704.16752 
L 2107.914034 706.39249 
L 2116.401538 708.442738 
L 2124.889042 710.33496 
L 2133.376546 712.086944 
L 2150.351553 715.241352 
L 2167.326561 718.048272 
L 2192.789073 721.918416 
L 2226.739089 727.055993 
L 2252.2016 731.152218 
L 2269.176608 734.08978 
L 2286.151616 737.245158 
L 2311.614128 742.060219 
L 2320.101632 743.519795 
L 2328.589136 744.83457 
L 2337.07664 745.961295 
L 2345.564143 746.856724 
L 2354.051647 747.477609 
L 2362.539151 747.780701 
L 2371.026655 747.725253 
L 2379.514159 747.32799 
L 2388.001663 746.663114 
L 2396.489167 745.807323 
L 2430.439183 742.009021 
L 2438.926687 741.349158 
L 2447.41419 740.958582 
L 2455.901694 740.913843 
L 2464.389198 741.260323 
L 2472.876702 741.973855 
L 2481.364206 743.020863 
L 2489.85171 744.367769 
L 2498.339214 745.980996 
L 2506.826718 747.826967 
L 2515.314222 749.872105 
L 2523.801726 752.082833 
L 2540.776733 756.86675 
L 2557.751741 761.953008 
L 2574.726749 767.315339 
L 2591.701757 772.98538 
L 2608.676765 778.994774 
L 2625.651773 785.375167 
L 2642.62678 792.141008 
L 2668.089292 802.748338 
L 2693.551804 813.396889 
L 2710.526812 820.235744 
L 2719.014316 823.513424 
L 2727.50182 826.668299 
L 2735.989324 829.679136 
L 2744.476827 832.524706 
L 2752.964331 835.183777 
L 2761.451835 837.635118 
L 2769.939339 839.857498 
L 2778.426843 841.829686 
L 2786.914347 843.530451 
L 2795.401851 844.938562 
L 2803.889355 846.032788 
L 2803.889355 846.032788 
" clip-path="url(#p0f531b394a)" style="fill: none; stroke: #d62728; stroke-width: 2; stroke-linecap: square"/>
   </g>
   <g id="line2d_53">
    <path d="M 181.250645 931.723284 
L 189.738149 929.313713 
L 198.225653 927.288687 
L 206.713157 925.612926 
L 215.200661 924.251151 
L 223.688165 923.16808 
L 232.175669 922.328433 
L 240.663173 921.69693 
L 249.150676 921.238291 
L 266.125684 920.698481 
L 308.563204 919.904438 
L 317.050708 919.558612 
L 325.538212 919.068125 
L 334.025716 918.397699 
L 342.51322 917.512051 
L 351.000723 916.375902 
L 359.488227 914.955328 
L 367.975731 913.269164 
L 384.950739 909.454115 
L 401.925747 905.661757 
L 410.413251 904.003958 
L 418.900755 902.627674 
L 427.388259 901.624855 
L 435.875763 901.087449 
L 444.363267 901.10737 
L 452.85077 901.734733 
L 461.338274 902.895432 
L 469.825778 904.4924 
L 478.313282 906.428565 
L 486.800786 908.60686 
L 520.750802 917.799943 
L 529.238306 919.732843 
L 537.72581 921.338718 
L 546.213313 922.631774 
L 554.700817 923.670146 
L 563.188321 924.512177 
L 580.163329 925.840586 
L 597.138337 927.083742 
L 605.625841 927.819206 
L 614.113345 928.708386 
L 622.600849 929.806544 
L 639.575857 932.496905 
L 656.550864 935.258229 
L 665.038368 936.442015 
L 673.525872 937.375356 
L 682.013376 937.968859 
L 690.50088 938.133127 
L 698.988384 937.778765 
L 707.475888 936.816673 
L 715.963392 935.21987 
L 724.450896 933.099988 
L 732.9384 930.58741 
L 741.425904 927.81252 
L 758.400911 921.99734 
L 766.888415 919.217817 
L 775.375919 916.697518 
L 783.863423 914.566827 
L 792.350927 912.956127 
L 800.838431 911.962073 
L 809.325935 911.498886 
L 817.813439 911.419391 
L 834.788447 911.822583 
L 843.275951 912.010825 
L 851.763454 911.993868 
L 860.250958 911.624489 
L 868.738462 910.755466 
L 877.225966 909.239577 
L 885.71347 906.942476 
L 894.200974 903.922522 
L 902.688478 900.38641 
L 928.15099 888.786273 
L 936.638494 885.290672 
L 945.125997 882.331482 
L 953.613501 880.119218 
L 962.101005 878.864392 
L 970.588509 878.775519 
L 979.076013 879.906439 
L 987.563517 882.04881 
L 996.051021 884.968892 
L 1004.538525 888.432944 
L 1030.001037 899.751528 
L 1038.488541 903.054067 
L 1046.976044 905.731878 
L 1055.463548 907.551221 
L 1063.951052 908.347753 
L 1072.438556 908.234709 
L 1080.92606 907.394723 
L 1089.413564 906.010424 
L 1097.901068 904.264447 
L 1114.876076 900.417981 
L 1123.36358 898.682756 
L 1131.851084 897.316379 
L 1140.338588 896.501482 
L 1148.826091 896.40056 
L 1157.313595 896.96822 
L 1165.801099 898.036426 
L 1174.288603 899.435558 
L 1191.263611 902.548117 
L 1199.751115 903.922303 
L 1208.238619 904.948932 
L 1216.726123 905.458383 
L 1225.213627 905.281037 
L 1233.701131 904.251284 
L 1242.188635 902.359468 
L 1250.676138 899.79852 
L 1259.163642 896.77491 
L 1284.626154 886.992821 
L 1293.113658 884.183274 
L 1301.601162 881.943418 
L 1310.088666 880.479726 
L 1318.57617 879.998598 
L 1327.063674 880.615625 
L 1335.551178 882.176554 
L 1344.038681 884.477245 
L 1352.526185 887.313559 
L 1361.013689 890.481354 
L 1377.988697 896.994828 
L 1386.476201 899.932226 
L 1394.963705 902.384544 
L 1403.451209 904.147642 
L 1411.938713 905.049858 
L 1420.426217 905.15957 
L 1428.913721 904.65274 
L 1437.401225 903.70584 
L 1462.863736 899.989419 
L 1471.35124 899.04694 
L 1479.838744 898.546744 
L 1488.326248 898.665301 
L 1496.813752 899.570707 
L 1505.301256 901.238476 
L 1513.78876 903.451536 
L 1539.251272 911.108003 
L 1547.738775 913.24777 
L 1556.226279 914.8056 
L 1564.713783 915.556049 
L 1573.201287 915.27367 
L 1581.688791 913.73362 
L 1590.176295 910.838621 
L 1598.663799 906.776011 
L 1607.151303 901.77164 
L 1615.638807 896.051357 
L 1624.126311 889.841009 
L 1649.588822 870.528072 
L 1658.076326 864.615958 
L 1666.56383 859.343024 
L 1675.051334 854.898042 
L 1683.538838 851.269234 
L 1692.026342 848.377331 
L 1700.513846 846.14301 
L 1709.00135 844.486952 
L 1717.488854 843.329834 
L 1725.976358 842.592335 
L 1734.463862 842.195135 
L 1742.951365 842.058912 
L 1759.926373 842.257407 
L 1768.413877 842.523283 
L 1776.901381 842.968139 
L 1785.388885 843.659707 
L 1793.876389 844.665721 
L 1802.363893 846.053914 
L 1810.851397 847.892019 
L 1819.338901 850.247768 
L 1827.826405 853.188896 
L 1836.313909 856.783134 
L 1844.801412 861.09712 
L 1853.288916 866.11254 
L 1861.77642 871.667097 
L 1870.263924 877.584542 
L 1887.238932 889.803108 
L 1895.726436 895.751734 
L 1904.21394 901.358259 
L 1912.701444 906.446436 
L 1921.188948 910.840016 
L 1929.676452 914.362753 
L 1938.163956 916.889203 
L 1946.651459 918.497138 
L 1955.138963 919.315133 
L 1963.626467 919.471765 
L 1972.113971 919.095608 
L 1980.601475 918.315239 
L 1989.088979 917.259232 
L 2014.551491 913.723149 
L 2023.038995 912.83883 
L 2031.526499 912.179761 
L 2048.501506 911.248198 
L 2065.476514 910.345579 
L 2073.964018 909.72269 
L 2082.451522 908.888115 
L 2090.939026 907.768882 
L 2099.42653 906.292016 
L 2107.914034 904.386523 
L 2116.401538 902.058342 
L 2124.889042 899.413348 
L 2141.864049 893.623152 
L 2150.351553 890.70306 
L 2158.839057 887.916381 
L 2167.326561 885.375671 
L 2175.814065 883.193486 
L 2184.301569 881.482382 
L 2192.789073 880.354878 
L 2201.276577 879.874755 
L 2209.764081 879.960974 
L 2218.251585 880.50572 
L 2226.739089 881.401178 
L 2235.226593 882.539534 
L 2260.689104 886.333845 
L 2269.176608 887.365647 
L 2277.664112 888.101275 
L 2286.151616 888.445175 
L 2294.63912 888.392413 
L 2303.126624 887.978672 
L 2311.614128 887.239826 
L 2320.101632 886.211749 
L 2328.589136 884.930314 
L 2337.07664 883.431395 
L 2345.564143 881.750867 
L 2362.539151 877.988479 
L 2388.001663 871.965627 
L 2396.489167 870.098699 
L 2404.976671 868.416804 
L 2413.464175 866.98882 
L 2421.951679 865.883629 
L 2430.439183 865.170111 
L 2438.926687 864.917147 
L 2447.41419 865.193617 
L 2455.901694 866.068129 
L 2464.389198 867.551066 
L 2472.876702 869.522919 
L 2481.364206 871.846598 
L 2515.314222 881.917841 
L 2523.801726 883.944345 
L 2532.28923 885.500152 
L 2540.776733 886.448174 
L 2549.264237 886.687678 
L 2557.751741 886.314566 
L 2566.239245 885.490914 
L 2574.726749 884.378851 
L 2591.701757 881.937997 
L 2600.189261 880.933462 
L 2608.676765 880.289025 
L 2617.164269 880.166812 
L 2625.651773 880.728951 
L 2634.139277 882.127762 
L 2642.62678 884.368806 
L 2651.114284 887.344672 
L 2659.601788 890.945041 
L 2668.089292 895.059596 
L 2676.576796 899.578018 
L 2685.0643 904.389989 
L 2719.014316 924.367005 
L 2727.50182 928.991951 
L 2735.989324 933.248538 
L 2744.476827 937.026449 
L 2752.964331 940.215363 
L 2761.451835 942.704965 
L 2769.939339 944.384935 
L 2778.426843 945.144955 
L 2786.914347 944.874708 
L 2795.401851 943.463876 
L 2803.889355 940.802139 
L 2803.889355 940.802139 
" clip-path="url(#p0f531b394a)" style="fill: none; stroke: #9467bd; stroke-width: 2; stroke-linecap: square"/>
   </g>
   <g id="line2d_54">
    <path d="M 181.250645 1169.590143 
L 189.738149 1167.693884 
L 198.225653 1166.019492 
L 206.713157 1164.55318 
L 215.200661 1163.281157 
L 223.688165 1162.189636 
L 232.175669 1161.264826 
L 240.663173 1160.492938 
L 249.150676 1159.860185 
L 257.63818 1159.352776 
L 274.613188 1158.658837 
L 291.588196 1158.300808 
L 308.563204 1158.168378 
L 359.488227 1158.022011 
L 393.438243 1157.635859 
L 410.413251 1157.800572 
L 418.900755 1158.073651 
L 427.388259 1158.512462 
L 435.875763 1159.145939 
L 444.363267 1160.003008 
L 452.85077 1161.097659 
L 461.338274 1162.399512 
L 469.825778 1163.869979 
L 486.800786 1167.162414 
L 520.750802 1174.072872 
L 529.238306 1175.643232 
L 537.72581 1177.079702 
L 554.700817 1179.624633 
L 588.650833 1184.350168 
L 597.138337 1185.653249 
L 605.625841 1187.072758 
L 614.113345 1188.642568 
L 622.600849 1190.395003 
L 631.088353 1192.326709 
L 648.06336 1196.570258 
L 682.013376 1205.441615 
L 690.50088 1207.502779 
L 698.988384 1209.42011 
L 707.475888 1211.153135 
L 715.963392 1212.684518 
L 724.450896 1214.048545 
L 741.425904 1216.439617 
L 766.888415 1219.802841 
L 775.375919 1221.029432 
L 783.863423 1222.377566 
L 792.350927 1223.888514 
L 800.838431 1225.588656 
L 834.788447 1232.926537 
L 843.275951 1234.488847 
L 851.763454 1235.779689 
L 860.250958 1236.717761 
L 868.738462 1237.221762 
L 877.225966 1237.210389 
L 885.71347 1236.609121 
L 894.200974 1235.444874 
L 902.688478 1233.822655 
L 911.175982 1231.849479 
L 919.663486 1229.632362 
L 945.125997 1222.58751 
L 953.613501 1220.464776 
L 962.101005 1218.633176 
L 970.588509 1217.198871 
L 979.076013 1216.201939 
L 987.563517 1215.570446 
L 996.051021 1215.221606 
L 1004.538525 1215.072634 
L 1030.001037 1214.997074 
L 1038.488541 1214.819722 
L 1046.976044 1214.428312 
L 1055.463548 1213.74006 
L 1063.951052 1212.697179 
L 1072.438556 1211.341893 
L 1080.92606 1209.741422 
L 1097.901068 1206.073814 
L 1114.876076 1202.232132 
L 1123.36358 1200.414068 
L 1131.851084 1198.754152 
L 1140.338588 1197.319604 
L 1148.826091 1196.171985 
L 1157.313595 1195.314392 
L 1165.801099 1194.715433 
L 1174.288603 1194.343272 
L 1182.776107 1194.166069 
L 1191.263611 1194.15199 
L 1208.238619 1194.485848 
L 1276.13865 1196.697389 
L 1293.113658 1196.967272 
L 1310.088666 1197.044692 
L 1327.063674 1196.894181 
L 1344.038681 1196.483116 
L 1361.013689 1195.781366 
L 1377.988697 1194.758888 
L 1394.963705 1193.385637 
L 1411.938713 1191.632962 
L 1428.913721 1189.526428 
L 1445.888728 1187.162028 
L 1479.838744 1182.062431 
L 1539.251272 1173.060587 
L 1547.738775 1171.568949 
L 1556.226279 1169.957494 
L 1564.713783 1168.203181 
L 1573.201287 1166.282971 
L 1581.688791 1164.173879 
L 1590.176295 1161.864618 
L 1598.663799 1159.369997 
L 1607.151303 1156.708356 
L 1615.638807 1153.898037 
L 1632.613815 1147.904726 
L 1649.588822 1141.536787 
L 1675.051334 1131.601991 
L 1734.463862 1108.252495 
L 1751.438869 1101.788205 
L 1768.413877 1095.518477 
L 1785.388885 1089.53856 
L 1802.363893 1083.960304 
L 1810.851397 1081.356775 
L 1819.338901 1078.895634 
L 1827.826405 1076.590871 
L 1836.313909 1074.456477 
L 1844.801412 1072.506326 
L 1853.288916 1070.745231 
L 1861.77642 1069.162646 
L 1870.263924 1067.746538 
L 1878.751428 1066.484875 
L 1887.238932 1065.365622 
L 1895.726436 1064.376748 
L 1912.701444 1062.742 
L 1929.676452 1061.484368 
L 1946.651459 1060.503967 
L 1980.601475 1058.913805 
L 1997.576483 1058.06809 
L 2014.551491 1057.031315 
L 2031.526499 1055.696937 
L 2048.501506 1054.030551 
L 2065.476514 1052.025816 
L 2082.451522 1049.676453 
L 2099.42653 1046.976184 
L 2116.401538 1043.930692 
L 2167.326561 1034.307018 
L 2175.814065 1032.898014 
L 2184.301569 1031.612367 
L 2192.789073 1030.475439 
L 2201.276577 1029.501255 
L 2209.764081 1028.670149 
L 2226.739089 1027.333587 
L 2252.2016 1025.754444 
L 2269.176608 1024.68337 
L 2286.151616 1023.359133 
L 2303.126624 1021.701289 
L 2320.101632 1019.789877 
L 2345.564143 1016.645862 
L 2404.976671 1009.016684 
L 2413.464175 1007.724589 
L 2421.951679 1006.303177 
L 2430.439183 1004.724993 
L 2438.926687 1002.962578 
L 2447.41419 1000.988477 
L 2455.901694 998.775321 
L 2464.389198 996.314756 
L 2472.876702 993.640851 
L 2481.364206 990.793413 
L 2498.339214 984.737168 
L 2532.28923 972.293819 
L 2540.776733 969.346264 
L 2549.264237 966.53453 
L 2566.239245 961.227682 
L 2600.189261 950.896185 
L 2608.676765 948.16702 
L 2617.164269 945.309025 
L 2625.651773 942.287044 
L 2634.139277 939.068223 
L 2642.62678 935.654198 
L 2651.114284 932.073146 
L 2668.089292 924.525416 
L 2685.0643 916.655936 
L 2710.526812 904.753534 
L 2727.50182 897.089876 
L 2735.989324 893.426019 
L 2744.476827 889.912626 
L 2752.964331 886.57856 
L 2761.451835 883.452685 
L 2769.939339 880.563863 
L 2778.426843 877.940957 
L 2786.914347 875.612829 
L 2795.401851 873.608342 
L 2803.889355 871.95636 
L 2803.889355 871.95636 
" clip-path="url(#p0f531b394a)" style="fill: none; stroke: #8c564b; stroke-width: 2; stroke-linecap: square"/>
   </g>
   <g id="line2d_55">
    <path d="M 181.250645 1155.225649 
L 189.738149 1153.701292 
L 198.225653 1152.469601 
L 206.713157 1151.514281 
L 215.200661 1150.819039 
L 223.688165 1150.36758 
L 232.175669 1150.143611 
L 240.663173 1150.130837 
L 249.150676 1150.312965 
L 257.63818 1150.673701 
L 266.125684 1151.19675 
L 274.613188 1151.865818 
L 283.100692 1152.664612 
L 300.0757 1154.586201 
L 317.050708 1156.831162 
L 342.51322 1160.519785 
L 367.975731 1164.212273 
L 401.925747 1168.889682 
L 444.363267 1174.714846 
L 512.263298 1184.270038 
L 529.238306 1186.413242 
L 563.188321 1190.422789 
L 571.675825 1191.560818 
L 580.163329 1192.831079 
L 588.650833 1194.272564 
L 597.138337 1195.924262 
L 605.625841 1197.825165 
L 614.113345 1200.014262 
L 622.600849 1202.528279 
L 631.088353 1205.351821 
L 639.575857 1208.417373 
L 656.550864 1214.995389 
L 673.525872 1221.704084 
L 682.013376 1224.932986 
L 690.50088 1227.985217 
L 698.988384 1230.790996 
L 707.475888 1233.280719 
L 715.963392 1235.421952 
L 724.450896 1237.265196 
L 732.9384 1238.872172 
L 741.425904 1240.304603 
L 783.863423 1247.008841 
L 792.350927 1248.690159 
L 800.838431 1250.613315 
L 809.325935 1252.739602 
L 826.300943 1257.332623 
L 843.275951 1261.931219 
L 851.763454 1264.064476 
L 860.250958 1265.997369 
L 868.738462 1267.662644 
L 877.225966 1268.993049 
L 885.71347 1269.925903 
L 894.200974 1270.466936 
L 902.688478 1270.674545 
L 911.175982 1270.608479 
L 919.663486 1270.328487 
L 936.638494 1269.365726 
L 953.613501 1268.264258 
L 962.101005 1267.810883 
L 970.588509 1267.501565 
L 979.076013 1267.355632 
L 996.051021 1267.354116 
L 1013.026029 1267.373959 
L 1021.513533 1267.254726 
L 1030.001037 1266.976236 
L 1038.488541 1266.483623 
L 1046.976044 1265.72202 
L 1055.463548 1264.636563 
L 1063.951052 1263.198895 
L 1072.438556 1261.486703 
L 1106.388572 1253.976618 
L 1114.876076 1252.454749 
L 1123.36358 1251.283533 
L 1131.851084 1250.567168 
L 1140.338588 1250.409849 
L 1148.826091 1250.901944 
L 1157.313595 1251.991068 
L 1165.801099 1253.540616 
L 1174.288603 1255.412896 
L 1199.751115 1261.58921 
L 1208.238619 1263.375497 
L 1216.726123 1264.796055 
L 1225.213627 1265.713192 
L 1233.701131 1265.991963 
L 1242.188635 1265.604261 
L 1250.676138 1264.66076 
L 1259.163642 1263.28141 
L 1267.651146 1261.58616 
L 1301.601162 1254.045173 
L 1310.088666 1252.569678 
L 1318.57617 1251.497946 
L 1327.063674 1250.899208 
L 1335.551178 1250.692104 
L 1344.038681 1250.767432 
L 1377.988697 1251.709046 
L 1386.476201 1251.558517 
L 1394.963705 1251.035212 
L 1403.451209 1250.02993 
L 1411.938713 1248.453287 
L 1420.426217 1246.362369 
L 1428.913721 1243.879908 
L 1437.401225 1241.128948 
L 1462.863736 1232.495498 
L 1471.35124 1229.900967 
L 1479.838744 1227.653149 
L 1488.326248 1225.875088 
L 1496.813752 1224.684452 
L 1505.301256 1224.075283 
L 1513.78876 1223.917999 
L 1522.276264 1224.077644 
L 1547.738775 1225.108584 
L 1556.226279 1225.186376 
L 1564.713783 1224.906313 
L 1573.201287 1224.133438 
L 1581.688791 1222.733117 
L 1590.176295 1220.639102 
L 1598.663799 1217.937721 
L 1607.151303 1214.73595 
L 1615.638807 1211.140761 
L 1624.126311 1207.25913 
L 1658.076326 1191.007662 
L 1666.56383 1187.29843 
L 1675.051334 1183.925467 
L 1683.538838 1180.873132 
L 1692.026342 1178.090955 
L 1700.513846 1175.528441 
L 1709.00135 1173.135094 
L 1725.976358 1168.65392 
L 1742.951365 1164.243468 
L 1751.438869 1161.938524 
L 1759.926373 1159.503445 
L 1776.901381 1154.317488 
L 1793.876389 1149.050521 
L 1802.363893 1146.515266 
L 1810.851397 1144.114087 
L 1819.338901 1141.898427 
L 1827.826405 1139.919728 
L 1836.313909 1138.229435 
L 1844.801412 1136.878507 
L 1853.288916 1135.880599 
L 1861.77642 1135.186129 
L 1870.263924 1134.739388 
L 1878.751428 1134.48467 
L 1895.726436 1134.328471 
L 1912.701444 1134.271869 
L 1921.188948 1134.141648 
L 1929.676452 1133.869203 
L 1938.163956 1133.412964 
L 1946.651459 1132.787903 
L 1963.626467 1131.147761 
L 1980.601475 1129.181658 
L 2006.063987 1126.130757 
L 2023.038995 1124.365607 
L 2040.014003 1122.923072 
L 2082.451522 1119.57968 
L 2099.42653 1117.854403 
L 2107.914034 1116.814911 
L 2116.401538 1115.634088 
L 2124.889042 1114.306163 
L 2133.376546 1112.826027 
L 2141.864049 1111.18857 
L 2150.351553 1109.388683 
L 2158.839057 1107.421256 
L 2167.326561 1105.281179 
L 2175.814065 1102.963344 
L 2184.301569 1100.462639 
L 2192.789073 1097.773965 
L 2201.276577 1094.903089 
L 2218.251585 1088.772966 
L 2252.2016 1076.192269 
L 2260.689104 1073.237217 
L 2269.176608 1070.446288 
L 2277.664112 1067.863519 
L 2286.151616 1065.526131 
L 2294.63912 1063.420974 
L 2303.126624 1061.512324 
L 2311.614128 1059.764346 
L 2328.589136 1056.60708 
L 2362.539151 1050.643998 
L 2379.514159 1047.300736 
L 2404.976671 1041.861559 
L 2421.951679 1038.277288 
L 2438.926687 1034.987321 
L 2447.41419 1033.522564 
L 2455.901694 1032.215139 
L 2464.389198 1031.075693 
L 2481.364206 1029.184477 
L 2506.826718 1026.822405 
L 2523.801726 1025.179622 
L 2532.28923 1024.238922 
L 2540.776733 1023.174732 
L 2549.264237 1021.960891 
L 2557.751741 1020.60802 
L 2574.726749 1017.577215 
L 2591.701757 1014.266404 
L 2625.651773 1007.541157 
L 2642.62678 1004.463522 
L 2685.0643 997.075156 
L 2702.039308 993.7601 
L 2710.526812 991.933588 
L 2719.014316 989.963786 
L 2727.50182 987.827719 
L 2735.989324 985.50241 
L 2744.476827 982.964884 
L 2752.964331 980.192164 
L 2761.451835 977.161277 
L 2769.939339 973.849245 
L 2778.426843 970.233093 
L 2786.914347 966.289845 
L 2795.401851 961.996526 
L 2803.889355 957.330159 
L 2803.889355 957.330159 
" clip-path="url(#p0f531b394a)" style="fill: none; stroke: #e377c2; stroke-width: 2; stroke-linecap: square"/>
   </g>
   <g id="line2d_56">
    <path d="M 181.250645 968.107738 
L 198.225653 967.865612 
L 215.200661 967.322218 
L 240.663173 966.159983 
L 274.613188 964.484893 
L 291.588196 963.81754 
L 308.563204 963.396363 
L 325.538212 963.320896 
L 334.025716 963.443909 
L 342.51322 963.690675 
L 351.000723 964.073636 
L 359.488227 964.604724 
L 376.463235 966.05395 
L 418.900755 970.3043 
L 427.388259 970.978946 
L 435.875763 971.512587 
L 444.363267 971.869868 
L 452.85077 972.032379 
L 461.338274 972.032076 
L 478.313282 971.708091 
L 503.775794 971.032652 
L 512.263298 970.922047 
L 520.750802 970.93749 
L 529.238306 971.120245 
L 537.72581 971.505218 
L 546.213313 972.080306 
L 554.700817 972.812335 
L 571.675825 974.614124 
L 614.113345 979.535961 
L 622.600849 980.326748 
L 639.575857 981.576063 
L 656.550864 982.494944 
L 682.013376 983.556586 
L 707.475888 984.653549 
L 749.913407 986.834003 
L 766.888415 987.332471 
L 775.375919 987.400881 
L 783.863423 987.315161 
L 792.350927 987.050123 
L 800.838431 986.584258 
L 809.325935 985.915927 
L 817.813439 985.050182 
L 826.300943 983.992077 
L 834.788447 982.74667 
L 843.275951 981.319015 
L 851.763454 979.71417 
L 860.250958 977.937188 
L 868.738462 975.993127 
L 877.225966 973.887042 
L 885.71347 971.62414 
L 894.200974 969.211877 
L 902.688478 966.659444 
L 911.175982 963.976076 
L 928.15099 958.25347 
L 945.125997 952.117937 
L 962.101005 945.643354 
L 1004.538525 928.887921 
L 1013.026029 925.728411 
L 1021.513533 922.729823 
L 1030.001037 919.933808 
L 1038.488541 917.382015 
L 1046.976044 915.116098 
L 1055.463548 913.177706 
L 1063.951052 911.59665 
L 1072.438556 910.355383 
L 1080.92606 909.424514 
L 1089.413564 908.774656 
L 1097.901068 908.376419 
L 1106.388572 908.200415 
L 1114.876076 908.217255 
L 1123.36358 908.397551 
L 1140.338588 909.130951 
L 1157.313595 910.203387 
L 1165.801099 910.874005 
L 1174.288603 911.656649 
L 1182.776107 912.568191 
L 1191.263611 913.625503 
L 1199.751115 914.845456 
L 1208.238619 916.244923 
L 1216.726123 917.840776 
L 1225.213627 919.649886 
L 1233.701131 921.688639 
L 1242.188635 923.954531 
L 1250.676138 926.420519 
L 1259.163642 929.05792 
L 1276.13865 934.732228 
L 1293.113658 940.747992 
L 1327.063674 952.890516 
L 1344.038681 958.649862 
L 1361.013689 964.083778 
L 1377.988697 969.124718 
L 1386.476201 971.476714 
L 1394.963705 973.705135 
L 1403.451209 975.80154 
L 1411.938713 977.758641 
L 1420.426217 979.577706 
L 1428.913721 981.263837 
L 1437.401225 982.822152 
L 1445.888728 984.257769 
L 1454.376232 985.575809 
L 1471.35124 987.879632 
L 1488.326248 989.774573 
L 1505.301256 991.312399 
L 1556.226279 995.436575 
L 1564.713783 996.308056 
L 1573.201287 997.297071 
L 1581.688791 998.427895 
L 1590.176295 999.709819 
L 1607.151303 1002.625842 
L 1632.613815 1007.450206 
L 1649.588822 1010.632139 
L 1666.56383 1013.518999 
L 1675.051334 1014.78295 
L 1683.538838 1015.908291 
L 1692.026342 1016.889872 
L 1700.513846 1017.722546 
L 1709.00135 1018.401168 
L 1717.488854 1018.920592 
L 1725.976358 1019.275673 
L 1734.463862 1019.461264 
L 1742.951365 1019.47222 
L 1751.438869 1019.303395 
L 1759.926373 1018.949853 
L 1768.413877 1018.409794 
L 1776.901381 1017.683836 
L 1785.388885 1016.772654 
L 1793.876389 1015.676927 
L 1802.363893 1014.397332 
L 1810.851397 1012.934549 
L 1819.338901 1011.289253 
L 1827.826405 1009.462123 
L 1836.313909 1007.453837 
L 1844.801412 1005.265131 
L 1853.288916 1002.901246 
L 1861.77642 1000.375062 
L 1870.263924 997.700198 
L 1878.751428 994.890272 
L 1895.726436 988.919715 
L 1912.701444 982.572341 
L 1929.676452 975.957105 
L 1946.651459 969.151098 
L 1963.626467 962.103967 
L 1980.601475 954.733501 
L 1997.576483 946.957486 
L 2006.063987 942.891707 
L 2014.551491 938.69371 
L 2023.038995 934.355313 
L 2040.014003 925.323791 
L 2065.476514 911.284043 
L 2090.939026 897.285628 
L 2107.914034 888.327236 
L 2124.889042 879.838919 
L 2141.864049 871.790366 
L 2158.839057 864.128773 
L 2175.814065 856.80134 
L 2192.789073 849.755266 
L 2209.764081 842.975711 
L 2226.739089 836.578568 
L 2235.226593 833.568406 
L 2243.714096 830.707855 
L 2252.2016 828.014915 
L 2260.689104 825.507589 
L 2269.176608 823.20388 
L 2277.664112 821.121789 
L 2286.151616 819.276344 
L 2294.63912 817.660577 
L 2303.126624 816.257666 
L 2311.614128 815.05074 
L 2320.101632 814.022929 
L 2328.589136 813.157363 
L 2337.07664 812.437172 
L 2345.564143 811.845486 
L 2362.539151 810.98015 
L 2379.514159 810.441015 
L 2396.489167 810.234992 
L 2413.464175 810.434515 
L 2421.951679 810.70916 
L 2430.439183 811.112558 
L 2438.926687 811.65383 
L 2447.41419 812.342098 
L 2455.901694 813.186444 
L 2464.389198 814.187444 
L 2472.876702 815.3267 
L 2489.85171 817.93612 
L 2506.826718 820.846979 
L 2549.264237 828.343153 
L 2566.239245 831.018205 
L 2583.214253 833.328153 
L 2591.701757 834.312811 
L 2600.189261 835.166112 
L 2608.676765 835.874694 
L 2617.164269 836.425197 
L 2625.651773 836.80426 
L 2634.139277 836.999423 
L 2642.62678 837.011698 
L 2651.114284 836.852467 
L 2659.601788 836.533378 
L 2668.089292 836.06608 
L 2676.576796 835.462223 
L 2685.0643 834.733454 
L 2702.039308 832.94778 
L 2719.014316 830.802248 
L 2735.989324 828.390048 
L 2761.451835 824.475603 
L 2795.401851 819.192789 
L 2803.889355 817.938395 
L 2803.889355 817.938395 
" clip-path="url(#p0f531b394a)" style="fill: none; stroke: #7f7f7f; stroke-width: 2; stroke-linecap: square"/>
   </g>
   <g id="patch_3">
    <path d="M 137.54 1329.64 
L 137.54 32.4 
" style="fill: none; stroke: #000000; stroke-width: 0.8; stroke-linejoin: miter; stroke-linecap: square"/>
   </g>
   <g id="patch_4">
    <path d="M 2847.6 1329.64 
L 2847.6 32.4 
" style="fill: none; stroke: #000000; stroke-width: 0.8; stroke-linejoin: miter; stroke-linecap: square"/>
   </g>
   <g id="patch_5">
    <path d="M 137.54 1329.64 
L 2847.6 1329.64 
" style="fill: none; stroke: #000000; stroke-width: 0.8; stroke-linejoin: miter; stroke-linecap: square"/>
   </g>
   <g id="patch_6">
    <path d="M 137.54 32.4 
L 2847.6 32.4 
" style="fill: none; stroke: #000000; stroke-width: 0.8; stroke-linejoin: miter; stroke-linecap: square"/>
   </g>
   <g id="legend_1">
    <g id="patch_7">
     <path d="M 158.54 395.7375 
L 269.54 395.7375 
Q 275.54 395.7375 275.54 389.7375 
L 275.54 53.4 
Q 275.54 47.4 269.54 47.4 
L 158.54 47.4 
Q 152.54 47.4 152.54 53.4 
L 152.54 389.7375 
Q 152.54 395.7375 158.54 395.7375 
z
" style="fill: #ffffff; opacity: 0.8; stroke: #cccccc; stroke-linejoin: miter"/>
    </g>
    <g id="line2d_57">
     <path d="M 164.54 69.9 
L 194.54 69.9 
L 224.54 69.9 
" style="fill: none; stroke: #1f77b4; stroke-width: 2; stroke-linecap: square"/>
    </g>
    <g id="text_27">
     <!-- 0 -->
     <g transform="translate(248.54 80.4) scale(0.3 -0.3)">
      <use xlink:href="#TimesNewRomanPSMT-30"/>
     </g>
    </g>
    <g id="line2d_58">
     <path d="M 164.54 112.317187 
L 194.54 112.317187 
L 224.54 112.317187 
" style="fill: none; stroke: #ff7f0e; stroke-width: 2; stroke-linecap: square"/>
    </g>
    <g id="text_28">
     <!-- 1 -->
     <g transform="translate(248.54 122.817187) scale(0.3 -0.3)">
      <use xlink:href="#TimesNewRomanPSMT-31"/>
     </g>
    </g>
    <g id="line2d_59">
     <path d="M 164.54 154.734375 
L 194.54 154.734375 
L 224.54 154.734375 
" style="fill: none; stroke: #2ca02c; stroke-width: 2; stroke-linecap: square"/>
    </g>
    <g id="text_29">
     <!-- 2 -->
     <g transform="translate(248.54 165.234375) scale(0.3 -0.3)">
      <use xlink:href="#TimesNewRomanPSMT-32"/>
     </g>
    </g>
    <g id="line2d_60">
     <path d="M 164.54 197.151562 
L 194.54 197.151562 
L 224.54 197.151562 
" style="fill: none; stroke: #d62728; stroke-width: 2; stroke-linecap: square"/>
    </g>
    <g id="text_30">
     <!-- 3 -->
     <g transform="translate(248.54 207.651562) scale(0.3 -0.3)">
      <use xlink:href="#TimesNewRomanPSMT-33"/>
     </g>
    </g>
    <g id="line2d_61">
     <path d="M 164.54 239.56875 
L 194.54 239.56875 
L 224.54 239.56875 
" style="fill: none; stroke: #9467bd; stroke-width: 2; stroke-linecap: square"/>
    </g>
    <g id="text_31">
     <!-- 4 -->
     <g transform="translate(248.54 250.06875) scale(0.3 -0.3)">
      <use xlink:href="#TimesNewRomanPSMT-34"/>
     </g>
    </g>
    <g id="line2d_62">
     <path d="M 164.54 281.985937 
L 194.54 281.985937 
L 224.54 281.985937 
" style="fill: none; stroke: #8c564b; stroke-width: 2; stroke-linecap: square"/>
    </g>
    <g id="text_32">
     <!-- 5 -->
     <g transform="translate(248.54 292.485937) scale(0.3 -0.3)">
      <defs>
       <path id="TimesNewRomanPSMT-35" d="M 2778 4238 
L 2534 3706 
L 1259 3706 
L 981 3138 
Q 1809 3016 2294 2522 
Q 2709 2097 2709 1522 
Q 2709 1188 2573 903 
Q 2438 619 2231 419 
Q 2025 219 1772 97 
Q 1413 -75 1034 -75 
Q 653 -75 479 54 
Q 306 184 306 341 
Q 306 428 378 495 
Q 450 563 559 563 
Q 641 563 702 538 
Q 763 513 909 409 
Q 1144 247 1384 247 
Q 1750 247 2026 523 
Q 2303 800 2303 1197 
Q 2303 1581 2056 1914 
Q 1809 2247 1375 2428 
Q 1034 2569 447 2591 
L 1259 4238 
L 2778 4238 
z
" transform="scale(0.015625)"/>
      </defs>
      <use xlink:href="#TimesNewRomanPSMT-35"/>
     </g>
    </g>
    <g id="line2d_63">
     <path d="M 164.54 324.403125 
L 194.54 324.403125 
L 224.54 324.403125 
" style="fill: none; stroke: #e377c2; stroke-width: 2; stroke-linecap: square"/>
    </g>
    <g id="text_33">
     <!-- 6 -->
     <g transform="translate(248.54 334.903125) scale(0.3 -0.3)">
      <use xlink:href="#TimesNewRomanPSMT-36"/>
     </g>
    </g>
    <g id="line2d_64">
     <path d="M 164.54 366.820312 
L 194.54 366.820312 
L 224.54 366.820312 
" style="fill: none; stroke: #7f7f7f; stroke-width: 2; stroke-linecap: square"/>
    </g>
    <g id="text_34">
     <!-- 7 -->
     <g transform="translate(248.54 377.320312) scale(0.3 -0.3)">
      <defs>
       <path id="TimesNewRomanPSMT-37" d="M 644 4238 
L 2916 4238 
L 2916 4119 
L 1503 -88 
L 1153 -88 
L 2419 3728 
L 1253 3728 
Q 900 3728 750 3644 
Q 488 3500 328 3200 
L 238 3234 
L 644 4238 
z
" transform="scale(0.015625)"/>
      </defs>
      <use xlink:href="#TimesNewRomanPSMT-37"/>
     </g>
    </g>
   </g>
  </g>
 </g>
 <defs>
  <clipPath id="p0f531b394a">
   <rect x="137.54" y="32.4" width="2710.06" height="1297.24"/>
  </clipPath>
 </defs>
</svg>
